<svg xmlns="http://www.w3.org/2000/svg" width="48" height="48" fill="none" viewBox="0 0 48 48">
  <path fill="#21AD64" d="M43 38.833A4.166 4.166 0 0 1 38.833 43H17.167A4.167 4.167 0 0 1 13 38.833V17.167A4.167 4.167 0 0 1 17.167 13h21.667A4.166 4.166 0 0 1 43 17.167v21.666Z"/>
  <path fill="#C8E6C9" d="M35 30.833A4.166 4.166 0 0 1 30.833 35H9.167A4.167 4.167 0 0 1 5 30.833V9.167A4.167 4.167 0 0 1 9.167 5h21.667A4.166 4.166 0 0 1 35 9.167v21.666Z"/>
  <path fill="#0B9261" d="m18 28.121-6.936-6.935 2.122-2.122L18 23.879l10.814-10.815 2.122 2.122L18 28.121Z"/>
</svg>
