<svg xmlns="http://www.w3.org/2000/svg" width="41" height="41" fill="none" viewBox="0 0 41 41">
  <g clip-path="url(#a)">
    <path fill="#782CFF" d="M6.833 2.733c-.754 0-1.366.613-1.366 1.367v5.467c0 .754.612 1.366 1.366 1.366H8.2v2.504a1.367 1.367 0 0 0 0 .446V24.37a1.367 1.367 0 0 0 0 .446v10.717A1.367 1.367 0 0 0 9.567 36.9h9.566v1.273c0 .807.654 1.46 1.46 1.46h1.274V36.9l5.466-5.467H20.5c-.755 0-1.367.613-1.367 1.367v1.367h-8.2v-8.2h8.2v1.366c0 .755.613 1.367 1.367 1.367h5.467c.754 0 1.366-.612 1.366-1.367v-5.466c0-.755-.612-1.367-1.366-1.367H20.5c-.755 0-1.367.612-1.367 1.367v1.366h-8.2v-8.2h8.2V16.4c0 .754.613 1.367 1.367 1.367h5.467c.754 0 1.366-.613 1.366-1.367v-5.467c0-.754-.612-1.366-1.366-1.366H20.5c-.755 0-1.367.612-1.367 1.366V12.3h-8.2v-1.367H12.3c.754 0 1.367-.612 1.367-1.366V4.1c0-.754-.613-1.367-1.367-1.367H6.833ZM38.066 24.6a1.4 1.4 0 0 0-.993.414l-.993.993 3.513 3.512.993-.992c.55-.55.55-1.438 0-1.986l-1.527-1.527a1.4 1.4 0 0 0-.993-.414Zm-3.392 2.81-7.965 7.969 1.054.35.35 1.758 1.759.35.35 1.054 7.967-7.965-3.515-3.515ZM25.41 38.297l-.782 2.21-.002.005v.003a.351.351 0 0 0 .45.462l2.227-.785-1.893-1.895Z"/>
  </g>
  <defs>
    <clipPath id="a">
      <path fill="#fff" d="M0 0h41v41H0z"/>
    </clipPath>
  </defs>
</svg>
