<svg xmlns="http://www.w3.org/2000/svg" viewBox="0 0 500 372.06"><defs><style>.cls-1{fill:#ebebeb;}.cls-2{fill:#f0f0f0;}.cls-3{fill:#f5f5f5;}.cls-4{fill:#e6e6e6;}.cls-5{fill:#e0e0e0;}.cls-6{fill:#407bff;}.cls-15,.cls-16,.cls-17,.cls-22,.cls-7,.cls-8,.cls-9{fill:#fff;}.cls-7{opacity:0.3;}.cls-20,.cls-8{opacity:0.4;}.cls-10{opacity:0.1;}.cls-11{opacity:0.8;}.cls-12,.cls-21,.cls-22,.cls-23{opacity:0.6;}.cls-13{fill:#263238;}.cls-14,.cls-17{opacity:0.2;}.cls-15{opacity:0.7;}.cls-16{opacity:0.5;}.cls-18{fill:#b55b52;}.cls-19{fill:#a02724;}.cls-21{fill:#fafafa;}</style></defs><g id="Layer_2" data-name="Layer 2"><g id="Background_Complete" data-name="Background Complete"><rect class="cls-1" x="416.78" y="343.54" width="33.12" height="0.25"/><rect class="cls-1" x="322.53" y="346.26" width="8.69" height="0.25"/><rect class="cls-1" x="396.59" y="334.26" width="19.19" height="0.25"/><rect class="cls-1" x="52.46" y="335.94" width="43.19" height="0.25"/><rect class="cls-1" x="104.56" y="335.94" width="6.33" height="0.25"/><rect class="cls-1" x="131.47" y="340.16" width="93.68" height="0.25"/><path class="cls-1" d="M238.4,282.85H45.3a5.71,5.71,0,0,1-5.71-5.71V5.71A5.71,5.71,0,0,1,45.3,0H238.4a5.71,5.71,0,0,1,5.71,5.71V277.14A5.71,5.71,0,0,1,238.4,282.85ZM45.3.25a5.47,5.47,0,0,0-5.46,5.46V277.14a5.47,5.47,0,0,0,5.46,5.46H238.4a5.47,5.47,0,0,0,5.46-5.46V5.71A5.47,5.47,0,0,0,238.4.25Z"/><path class="cls-1" d="M454.7,282.85H261.6a5.71,5.71,0,0,1-5.71-5.71V5.71A5.71,5.71,0,0,1,261.6,0H454.7a5.71,5.71,0,0,1,5.71,5.71V277.14A5.71,5.71,0,0,1,454.7,282.85ZM261.6.25a5.47,5.47,0,0,0-5.46,5.46V277.14a5.47,5.47,0,0,0,5.46,5.46H454.7a5.47,5.47,0,0,0,5.46-5.46V5.71A5.47,5.47,0,0,0,454.7.25Z"/><rect class="cls-1" y="327.45" width="500" height="0.25"/><path class="cls-2" d="M119.33,259.8c-.84-9.66-10.7-13.28-22.39-12.25S76.18,253.84,77,263.5Z"/><path class="cls-2" d="M96.56,243.13c5.42-.47,7.15-5,6.68-10.47s-3-9.64-8.4-9.16-7.15,5.05-6.68,10.48S91.14,243.61,96.56,243.13Z"/><path class="cls-3" d="M340.1,54a5.44,5.44,0,1,1-5.89-4.94A5.44,5.44,0,0,1,340.1,54Z"/><path class="cls-3" d="M370.17,51.39a5.43,5.43,0,1,1-5.88-4.94A5.44,5.44,0,0,1,370.17,51.39Z"/><path class="cls-3" d="M400.25,48.76a5.44,5.44,0,1,1-5.89-4.94A5.43,5.43,0,0,1,400.25,48.76Z"/><path class="cls-3" d="M342.78,84.67a5.44,5.44,0,1,1-5.89-4.94A5.44,5.44,0,0,1,342.78,84.67Z"/><path class="cls-3" d="M372.85,82A5.43,5.43,0,1,1,367,77.1,5.43,5.43,0,0,1,372.85,82Z"/><path class="cls-3" d="M402.93,79.41A5.44,5.44,0,1,1,397,74.47,5.44,5.44,0,0,1,402.93,79.41Z"/><path class="cls-3" d="M345.46,115.32a5.43,5.43,0,1,1-5.88-4.94A5.43,5.43,0,0,1,345.46,115.32Z"/><path class="cls-3" d="M375.54,112.69a5.44,5.44,0,1,1-5.89-4.94A5.44,5.44,0,0,1,375.54,112.69Z"/><path class="cls-3" d="M405.61,110.06a5.44,5.44,0,1,1-5.89-4.94A5.44,5.44,0,0,1,405.61,110.06Z"/><path class="cls-4" d="M399.11,111.83l-61.78,5.4,54.78-66.57L336,55.58a1.19,1.19,0,0,1-1.29-1.09h0a1.19,1.19,0,0,1,1.08-1.29l61.79-5.4-54.79,66.56,56.13-4.91a1.2,1.2,0,0,1,1.3,1.09h0A1.2,1.2,0,0,1,399.11,111.83Z"/><path class="cls-2" d="M400.06,230.65a1.55,1.55,0,0,0-1.35-1.06,10.74,10.74,0,0,1-7.13-3.16c-2.47-2.48-3.92-6.25-4.16-10.74a1.59,1.59,0,0,0-1.58-1.49h0a1.62,1.62,0,0,0-1.61,1.7c.28,5.26,2.06,9.76,5.09,12.79a14,14,0,0,0,8.87,4.06l.23,0A1.6,1.6,0,0,0,400.06,230.65Z"/><path class="cls-2" d="M396.86,249.85c-13.25-1.16-22.81-10.2-25.83-24.29a1.6,1.6,0,0,1,1.28-1.94h0a1.59,1.59,0,0,1,1.84,1.21c2.71,12.68,11.21,20.8,23,21.83,12.92,1.13,26.79-7.37,29.28-28.79a1.62,1.62,0,0,1,1.73-1.44h0a1.6,1.6,0,0,1,1.45,1.76C427.22,238.39,413.94,251.34,396.86,249.85Z"/><path class="cls-2" d="M371.86,211.51h0a1.59,1.59,0,0,1-1.45-1.76c2.38-20.2,15.66-33.15,32.73-31.65,15,1.3,25.05,12.5,26.62,29.37a1.59,1.59,0,0,1-1.5,1.72h0a1.59,1.59,0,0,1-1.68-1.47c-1.45-15.2-10.42-25.27-23.71-26.44-12.91-1.13-26.79,7.37-29.27,28.8A1.61,1.61,0,0,1,371.86,211.51Z"/><path class="cls-2" d="M397.51,241.28a21.94,21.94,0,0,1-6.89-1.72,1.61,1.61,0,0,1-.77-2.24h0a1.58,1.58,0,0,1,2-.7,19,19,0,0,0,6.58,1.52c9.79.56,20.13-6.38,21.15-23.15.62-10.32-2.92-18.66-9.52-22.65a1.6,1.6,0,0,1-.61-2.07h0a1.62,1.62,0,0,1,2.27-.67c7.65,4.62,11.75,14,11.05,25.59-1,16.16-11.06,26.91-24.53,26.14Z"/><path class="cls-2" d="M383.27,231.31a1.63,1.63,0,0,1-2.31-.53,32.36,32.36,0,0,1-3.75-18c.94-15.47,10.21-26,22.8-26.19a1.62,1.62,0,0,1,1.64,1.7h0a1.6,1.6,0,0,1-1.56,1.5c-9.34.18-18.72,7.24-19.68,23.17a29.18,29.18,0,0,0,3.34,16.26,1.59,1.59,0,0,1-.48,2.1Z"/><path class="cls-2" d="M405.13,230h0a1.6,1.6,0,0,1,.65-2c4.21-2.53,6.79-7.84,6.83-14.25,0-5.13-1.45-9.47-4.19-12.22a11,11,0,0,0-8.11-3.18c-4.93,0-8.93,2.71-11.14,7.46a1.58,1.58,0,0,1-2,.82h0a1.61,1.61,0,0,1-.9-2.19c2.74-5.84,7.87-9.28,14-9.29a14.24,14.24,0,0,1,10.39,4.12c3.35,3.36,5.17,8.51,5.13,14.5-.06,7.56-3.24,13.9-8.42,17A1.6,1.6,0,0,1,405.13,230Z"/><path class="cls-2" d="M393.61,218.24a1.6,1.6,0,0,1-2.16-1.11c-.11-.44-.19-.88-.26-1.34-.91-6,2.31-11.2,7.48-12.12a7.89,7.89,0,0,1,6.87,1.77,1.55,1.55,0,0,1-.13,2.42l-.1.07a1.6,1.6,0,0,1-2-.15,4.71,4.71,0,0,0-4.11-1c-3.94.7-5.44,4.8-4.88,8.49.06.36.12.71.21,1a1.61,1.61,0,0,1-.95,1.89Z"/><path class="cls-2" d="M398.9,224.4h0a1.49,1.49,0,0,1-1.12-2.28l.14-.21a1.48,1.48,0,0,1,1.37-.69,6,6,0,0,0,1.5-.1c3.44-.61,5-3.82,5-7.07a1.61,1.61,0,0,1,1.36-1.64h0a1.6,1.6,0,0,1,1.84,1.51c.09,5.22-3,9.52-7.63,10.35A8.83,8.83,0,0,1,398.9,224.4Z"/><path class="cls-2" d="M399.61,218.49a3.87,3.87,0,0,1-3.44-2.94,1.43,1.43,0,0,1,1.51-1.78l.37,0a1.45,1.45,0,0,1,1.23,1,.69.69,0,0,0,.61.52c.77.07.9-1,.92-1.26a1.92,1.92,0,0,0-.21-1.13,1.75,1.75,0,0,1-.4-1.19h0a1.61,1.61,0,0,1,2.83-.9,4.81,4.81,0,0,1,1,3.5C403.77,216.94,401.92,218.69,399.61,218.49Z"/><path class="cls-2" d="M369.53,182.7h0a1.59,1.59,0,0,1-1.45-1.73l1.21-13.87,13.87,1.21a1.6,1.6,0,0,1,1.45,1.74h0a1.59,1.59,0,0,1-1.73,1.45l-10.68-.93-.93,10.68A1.6,1.6,0,0,1,369.53,182.7Z"/><path class="cls-2" d="M435.46,188.47h0a1.6,1.6,0,0,1-1.45-1.74l.93-10.67-10.68-.94a1.59,1.59,0,0,1-1.45-1.73h0a1.61,1.61,0,0,1,1.73-1.46l13.87,1.22L437.2,187A1.61,1.61,0,0,1,435.46,188.47Z"/><path class="cls-2" d="M430.55,263l-13.87-1.22a1.59,1.59,0,0,1-1.45-1.73h0a1.59,1.59,0,0,1,1.73-1.45l10.68.93.93-10.68a1.6,1.6,0,0,1,1.74-1.45h0a1.59,1.59,0,0,1,1.45,1.73Z"/><path class="cls-2" d="M375.3,258.18,361.43,257l1.21-13.87a1.6,1.6,0,0,1,1.74-1.45h0a1.59,1.59,0,0,1,1.45,1.73l-.93,10.68,10.67.93a1.61,1.61,0,0,1,1.46,1.74h0A1.59,1.59,0,0,1,375.3,258.18Z"/><path class="cls-5" d="M74.73,228.17h0a1,1,0,0,1-1.07-.89l-.74-8.53,8.52-.74a1,1,0,0,1,1.07.89h0a1,1,0,0,1-.9,1.07l-6.56.57.57,6.57A1,1,0,0,1,74.73,228.17Z"/><path class="cls-5" d="M115.27,224.63h0a1,1,0,0,1-1.07-.9l-.57-6.56-6.57.57a1,1,0,0,1-1.07-.89h0a1,1,0,0,1,.9-1.07l8.52-.74.75,8.52A1,1,0,0,1,115.27,224.63Z"/><path class="cls-5" d="M119.47,261.34l-8.53.74a1,1,0,0,1-1.07-.89h0a1,1,0,0,1,.9-1.07l6.56-.57-.57-6.57a1,1,0,0,1,.89-1.06h0a1,1,0,0,1,1.07.89Z"/><path class="cls-5" d="M85.49,264.31l-8.52.75-.75-8.53a1,1,0,0,1,.9-1.07h0a1,1,0,0,1,1.06.9l.58,6.56,6.56-.57a1,1,0,0,1,1.07.89h0A1,1,0,0,1,85.49,264.31Z"/><path class="cls-1" d="M114.58,86,82,88.85l-.67-7.64A14.42,14.42,0,0,1,110,78.7l.38,4.44,4.71-.41-.39-4.44a19.14,19.14,0,1,0-38.14,3.34l.67,7.68a7.66,7.66,0,0,0-6.16,8.18l2.33,26.64a7.66,7.66,0,0,0,8.3,7l36.53-3.19a7.66,7.66,0,0,0,7-8.3L122.88,93A7.65,7.65,0,0,0,114.58,86Zm-13.86,20.53.8,9.17a2.74,2.74,0,0,1-5.45.48l-.8-9.18a4.6,4.6,0,1,1,5.45-.47Z"/><path class="cls-2" d="M170.44,101.44l-3.29-5.38a17,17,0,0,1-5,0l-3.3,5.38-.63-.17a24.43,24.43,0,0,1-6.1-2.53l-.56-.33,1.39-5.84a.89.89,0,0,1,1.07-.65h0a.89.89,0,0,1,.65,1.06l-1.1,4.56A22.55,22.55,0,0,0,158,99.39l3.22-5.25.59.1a17.78,17.78,0,0,0,5.64,0l.58-.1,3.22,5.25a22.06,22.06,0,0,0,4.47-1.85l-1.43-6,.48-.34a17.56,17.56,0,0,0,3.47-3.31.88.88,0,0,1,1.21-.18h0a.87.87,0,0,1,.19,1.25,18.86,18.86,0,0,1-3.37,3.31l1.47,6.13-.57.33a24.52,24.52,0,0,1-6.09,2.53ZM150.22,89.7c-.27-.32-.54-.64-.8-1l-6.13,1.47-.33-.57a25,25,0,0,1-2.53-6.09l-.16-.63,5.37-3.3a17.73,17.73,0,0,1,0-5l-5.37-3.3.16-.63a25.2,25.2,0,0,1,2.53-6.1l.33-.56,6.13,1.47A19.41,19.41,0,0,1,153,61.87l-1.11-4.63a.88.88,0,0,1,.65-1.06h0a.86.86,0,0,1,1.05.65L155,62.6l-.48.35a17.37,17.37,0,0,0-4,4l-.35.48-6-1.43a22.85,22.85,0,0,0-1.86,4.46l5.25,3.22-.09.59a16,16,0,0,0,0,5.64l.09.58-5.25,3.23a22.85,22.85,0,0,0,1.86,4.46l6-1.43.35.48a16.14,16.14,0,0,0,1,1.31.87.87,0,0,1,0,1.2l0,0A.87.87,0,0,1,150.22,89.7Zm35.74.49-2.26-.54a.88.88,0,0,1-.65-1.06h0a.88.88,0,0,1,1.06-.65l1,.23a22.82,22.82,0,0,0,1.85-4.46l-5.25-3.23.1-.58a16,16,0,0,0,0-5.64l-.1-.59,5.25-3.22A22.82,22.82,0,0,0,185.09,66l-6,1.43-.34-.48a17.57,17.57,0,0,0-4-4l-.48-.35,1.43-6a22.69,22.69,0,0,0-4.47-1.86L168,60l-.58-.1a17.78,17.78,0,0,0-5.64,0l-.59.1L158,54.76l-.6.19a.86.86,0,0,1-1.08-.53h0a.88.88,0,0,1,.53-1.14c.44-.15.89-.28,1.33-.39l.63-.17,3.3,5.38a17,17,0,0,1,5,0l3.29-5.38.64.17a24.52,24.52,0,0,1,6.09,2.53l.57.32-1.47,6.13a19.1,19.1,0,0,1,3.56,3.57L186,64l.33.56a24.81,24.81,0,0,1,2.53,6.1l.17.63-5.38,3.3a16.81,16.81,0,0,1,0,5L189,82.9l-.17.63a24.59,24.59,0,0,1-2.53,6.09Zm-21.58-4.54a8.58,8.58,0,0,1-.74-17.09.89.89,0,0,1,1,.88h0a.87.87,0,0,1-.77.87,6.81,6.81,0,1,0,6.35,2.86.85.85,0,0,1,.14-1.14h0a.88.88,0,0,1,1.31.15,8.57,8.57,0,0,1-7.28,13.47Z"/><path class="cls-4" d="M108.31,174.64l-2.13-3.47a11.06,11.06,0,0,1-3.25,0l-2.13,3.47-.41-.11a15.92,15.92,0,0,1-3.94-1.63l-.36-.22.9-3.77a.57.57,0,0,1,.68-.42h0a.57.57,0,0,1,.42.69l-.7,2.94a15.19,15.19,0,0,0,2.89,1.2l2.08-3.4.37.07a11.76,11.76,0,0,0,3.65,0l.37-.07,2.09,3.4a15.38,15.38,0,0,0,2.88-1.2l-.92-3.87.31-.22a11.35,11.35,0,0,0,2.24-2.14.57.57,0,0,1,.78-.12h0a.58.58,0,0,1,.13.81,12.61,12.61,0,0,1-2.18,2.14l1,4-.37.22a15.77,15.77,0,0,1-3.94,1.63Zm-13.06-7.58c-.18-.21-.35-.42-.52-.64l-4,1-.21-.36a15.92,15.92,0,0,1-1.63-3.94l-.11-.41,3.47-2.13a11.13,11.13,0,0,1,0-3.26l-3.47-2.13.11-.41a15.85,15.85,0,0,1,1.63-3.93l.21-.37,4,.95a12.52,12.52,0,0,1,2.3-2.3l-.71-3a.56.56,0,0,1,.42-.68h0a.56.56,0,0,1,.68.42l.9,3.73-.32.22a11.44,11.44,0,0,0-2.57,2.58l-.23.31-3.86-.92a15.11,15.11,0,0,0-1.2,2.88l3.39,2.08-.06.38a10.43,10.43,0,0,0,0,3.64l.06.38-3.39,2.08a15.19,15.19,0,0,0,1.2,2.89l3.86-.93.23.31c.21.29.43.58.67.85a.56.56,0,0,1,0,.77l0,0A.57.57,0,0,1,95.25,167.06Zm23.09.31-1.46-.35a.56.56,0,0,1-.42-.68h0a.56.56,0,0,1,.68-.42l.63.15a14.57,14.57,0,0,0,1.2-2.89l-3.39-2.08.06-.38a10.43,10.43,0,0,0,0-3.64l-.06-.38,3.39-2.08a14.49,14.49,0,0,0-1.2-2.88l-3.86.92-.23-.31a11.44,11.44,0,0,0-2.57-2.58l-.31-.22.92-3.87a15.38,15.38,0,0,0-2.88-1.2l-2.09,3.4-.37-.06a11.18,11.18,0,0,0-3.65,0l-.37.06-2.08-3.4-.39.13a.57.57,0,0,1-.7-.35h0a.56.56,0,0,1,.34-.73c.29-.1.57-.18.86-.26l.41-.11,2.13,3.48a11.06,11.06,0,0,1,3.25,0l2.13-3.48.41.11a16.18,16.18,0,0,1,3.94,1.64l.37.21-1,4a12.22,12.22,0,0,1,2.3,2.3l4-.95.21.37a15.85,15.85,0,0,1,1.63,3.93l.11.41-3.47,2.13a11.13,11.13,0,0,1,0,3.26l3.47,2.13-.11.41a15.92,15.92,0,0,1-1.63,3.94Zm-13.94-2.93A5.6,5.6,0,0,1,99,159.06a5.54,5.54,0,0,1,4.9-5.66.58.58,0,0,1,.64.57h0a.56.56,0,0,1-.5.56,4.4,4.4,0,1,0,4.9,4.37,4.34,4.34,0,0,0-.8-2.52.56.56,0,0,1,.09-.74h0a.57.57,0,0,1,.85.1,5.54,5.54,0,0,1-4.7,8.7Z"/></g><g id="Shadow"><ellipse id="_Path_" data-name="&lt;Path&gt;" class="cls-3" cx="250" cy="360.74" rx="193.89" ry="11.32"/></g><g id="Device"><path class="cls-6" d="M363.45,90.87H330.89l-23,263.25h32.56a18.71,18.71,0,0,0,18.26-16.79l20.09-229.66A15.16,15.16,0,0,0,363.45,90.87Z"/><path class="cls-6" d="M356.81,90.87H246.61a18.73,18.73,0,0,0-18.27,16.8L208.25,337.33a15.16,15.16,0,0,0,15.33,16.79H333.77A18.72,18.72,0,0,0,352,337.33l20.09-229.66A15.16,15.16,0,0,0,356.81,90.87Z"/><path class="cls-7" d="M356.81,90.87H246.61a18.73,18.73,0,0,0-18.27,16.8L208.25,337.33a15.16,15.16,0,0,0,15.33,16.79H333.77A18.72,18.72,0,0,0,352,337.33l20.09-229.66A15.16,15.16,0,0,0,356.81,90.87Z"/><path class="cls-8" d="M356.34,96.25H327.28a4.34,4.34,0,0,0-4,2.77h0a16,16,0,0,1-14.63,10.23H291.51A12.87,12.87,0,0,1,278.66,99h0a3.48,3.48,0,0,0-3.47-2.77H246.14a12.7,12.7,0,0,0-12.41,11.42l-20.1,229.66a10.29,10.29,0,0,0,10.42,11.41h110.2a12.71,12.71,0,0,0,12.41-11.41l20.09-229.66A10.29,10.29,0,0,0,356.34,96.25Z"/><path class="cls-9" d="M328.88,221H251.76a3.74,3.74,0,0,1-3.78-4.14l.39-4.42a4.61,4.61,0,0,1,4.5-4.14H330a3.74,3.74,0,0,1,3.78,4.14l-.38,4.42A4.62,4.62,0,0,1,328.88,221Z"/><path class="cls-9" d="M327.22,240.05H250.09a3.73,3.73,0,0,1-3.77-4.14l.38-4.42a4.62,4.62,0,0,1,4.5-4.14h77.13a3.74,3.74,0,0,1,3.78,4.14l-.39,4.42A4.62,4.62,0,0,1,327.22,240.05Z"/><path class="cls-10" d="M305.45,100.56a5.11,5.11,0,0,1-5,4.59,4.14,4.14,0,0,1-4.19-4.59,5.11,5.11,0,0,1,5-4.59A4.14,4.14,0,0,1,305.45,100.56Z"/><path class="cls-10" d="M303.37,100.56a2.79,2.79,0,0,1-2.73,2.5,2.26,2.26,0,0,1-2.29-2.5,2.79,2.79,0,0,1,2.73-2.51A2.27,2.27,0,0,1,303.37,100.56Z"/><g class="cls-11"><path class="cls-9" d="M342.77,108.21h0a1.22,1.22,0,0,1-1.23-1.34l.22-2.46a1.5,1.5,0,0,1,1.46-1.35h0a1.22,1.22,0,0,1,1.23,1.35l-.22,2.46A1.49,1.49,0,0,1,342.77,108.21Z"/><path class="cls-9" d="M353.53,108.21h0a1.22,1.22,0,0,1-1.23-1.34l.51-5.77a1.5,1.5,0,0,1,1.46-1.35h0a1.22,1.22,0,0,1,1.23,1.35l-.51,5.77A1.49,1.49,0,0,1,353.53,108.21Z"/><path class="cls-9" d="M348.15,108.21h0a1.22,1.22,0,0,1-1.23-1.34l.36-4.12a1.5,1.5,0,0,1,1.47-1.34h0a1.2,1.2,0,0,1,1.22,1.34l-.36,4.12A1.49,1.49,0,0,1,348.15,108.21Z"/></g><g class="cls-11"><path class="cls-9" d="M250.64,108.21h-6.76a.68.68,0,0,1-.69-.76l.31-3.62a.86.86,0,0,1,.83-.77h6.76a.69.69,0,0,1,.69.77l-.32,3.62A.83.83,0,0,1,250.64,108.21Z"/><path class="cls-9" d="M253.77,107.23h0a.69.69,0,0,1-.7-.76l.15-1.66a.84.84,0,0,1,.83-.76h0a.68.68,0,0,1,.69.76l-.14,1.66A.85.85,0,0,1,253.77,107.23Z"/></g><ellipse class="cls-9" cx="294.81" cy="169.68" rx="33.73" ry="30.9" transform="translate(-35.49 250.96) rotate(-43.75)"/><path class="cls-6" d="M294.92,168.43c-8.48,0-15.65,3.22-16.26,10.24l-.68,7.78h30.73l.68-7.78C310,171.65,303.41,168.43,294.92,168.43Z"/><path class="cls-6" d="M295.2,165.22c3.94,0,5.76-3.19,6.1-7.13s-.91-7.13-4.85-7.13-5.75,3.19-6.1,7.13S291.26,165.22,295.2,165.22Z"/><path class="cls-6" d="M325.36,214.43c-2.09,0-3.86.8-4,2.53l-.17,1.92h7.59l.17-1.92C329.09,215.23,327.46,214.43,325.36,214.43Z"/><path class="cls-6" d="M325.43,213.64c1,0,1.42-.79,1.51-1.76s-.23-1.76-1.2-1.76-1.42.79-1.51,1.76S324.46,213.64,325.43,213.64Z"/><path class="cls-6" d="M302,259.09H272a5.74,5.74,0,0,1-5.8-6.35h0a7.07,7.07,0,0,1,6.91-6.35h30a5.73,5.73,0,0,1,5.8,6.35h0A7.08,7.08,0,0,1,302,259.09Z"/><path class="cls-6" d="M298.37,329.86H266.26a6,6,0,0,1-6.12-6.7l2.05-23.43a7.46,7.46,0,0,1,7.29-6.7H301.6a6,6,0,0,1,6.12,6.7l-2.05,23.43A7.47,7.47,0,0,1,298.37,329.86Z"/><g class="cls-12"><path class="cls-9" d="M288.47,305.65a3.63,3.63,0,0,0-3.68-4,4.48,4.48,0,0,0-4.39,4,3.65,3.65,0,0,0,1.35,3.23l-.7,8.07a2.15,2.15,0,0,0,2.19,2.39,2.66,2.66,0,0,0,2.6-2.39l.71-8.07A4.46,4.46,0,0,0,288.47,305.65Z"/></g><path class="cls-6" d="M301.88,297.9h-4.14l1-11.59a11.41,11.41,0,0,0-11.53-12.63,14.09,14.09,0,0,0-13.74,12.63l-1,11.59h-4.14l1-11.59a18.69,18.69,0,0,1,18.23-16.77,15.15,15.15,0,0,1,15.31,16.77Z"/><path class="cls-6" d="M325.87,232.18l.1-1.11a1.86,1.86,0,0,0-1.88-2.06,2.29,2.29,0,0,0-2.24,2.06l-.1,1.11a.92.92,0,0,0-.89.82l-.26,3a.74.74,0,0,0,.75.82h4.12a.92.92,0,0,0,.89-.82l.26-3A.74.74,0,0,0,325.87,232.18ZM324,229.52a1.4,1.4,0,0,1,1.42,1.55l-.1,1.11h-3.1l.1-1.11A1.72,1.72,0,0,1,324,229.52Z"/><path class="cls-13" d="M263.85,233.37l-1.44-.3a.27.27,0,0,1-.19-.38l.6-1.42a.28.28,0,0,0-.47-.29l-1.09,1.12a.3.3,0,0,1-.44,0l-.89-1.12c-.19-.24-.6,0-.53.29l.35,1.42a.32.32,0,0,1-.25.38l-1.49.3c-.32.06-.36.51-.05.57l1.44.3a.26.26,0,0,1,.18.38L259,236a.28.28,0,0,0,.47.29l1.09-1.12a.28.28,0,0,1,.44,0l.89,1.12c.19.24.6,0,.52-.29l-.35-1.42a.32.32,0,0,1,.26-.38l1.49-.3C264.12,233.88,264.16,233.43,263.85,233.37Z"/><path class="cls-13" d="M273.31,233.37l-1.44-.3a.27.27,0,0,1-.19-.38l.6-1.42a.28.28,0,0,0-.47-.29l-1.09,1.12a.3.3,0,0,1-.44,0l-.89-1.12c-.19-.24-.6,0-.52.29l.35,1.42a.33.33,0,0,1-.26.38l-1.49.3c-.32.06-.36.51-.05.57l1.44.3a.27.27,0,0,1,.19.38l-.6,1.42a.28.28,0,0,0,.47.29l1.09-1.12a.28.28,0,0,1,.44,0l.89,1.12c.19.24.6,0,.53-.29l-.35-1.42a.31.31,0,0,1,.25-.38l1.49-.3C273.58,233.88,273.62,233.43,273.31,233.37Z"/><path class="cls-13" d="M282.77,233.37l-1.43-.3a.27.27,0,0,1-.19-.38l.6-1.42a.28.28,0,0,0-.48-.29l-1.08,1.12a.31.31,0,0,1-.45,0l-.89-1.12c-.19-.24-.6,0-.52.29l.35,1.42a.33.33,0,0,1-.25.38l-1.49.3c-.32.06-.36.51-.05.57l1.43.3a.27.27,0,0,1,.19.38l-.6,1.42a.28.28,0,0,0,.48.29l1.08-1.12a.28.28,0,0,1,.44,0l.9,1.12c.19.24.6,0,.52-.29l-.35-1.42a.32.32,0,0,1,.25-.38l1.49-.3C283,233.88,283.08,233.43,282.77,233.37Z"/><path class="cls-13" d="M292.24,233.37l-1.44-.3a.27.27,0,0,1-.19-.38l.6-1.42a.28.28,0,0,0-.47-.29l-1.09,1.12a.3.3,0,0,1-.44,0l-.89-1.12c-.19-.24-.6,0-.53.29l.35,1.42a.32.32,0,0,1-.25.38l-1.49.3c-.32.06-.36.51,0,.57l1.44.3a.26.26,0,0,1,.18.38l-.59,1.42a.28.28,0,0,0,.47.29l1.09-1.12a.28.28,0,0,1,.44,0l.89,1.12c.19.24.6,0,.52-.29l-.35-1.42a.32.32,0,0,1,.26-.38l1.49-.3C292.51,233.88,292.55,233.43,292.24,233.37Z"/><path class="cls-13" d="M301.7,233.37l-1.44-.3a.27.27,0,0,1-.19-.38l.6-1.42a.28.28,0,0,0-.47-.29l-1.09,1.12a.3.3,0,0,1-.44,0l-.89-1.12c-.19-.24-.6,0-.52.29l.35,1.42a.33.33,0,0,1-.26.38l-1.49.3c-.32.06-.36.51-.05.57l1.44.3a.27.27,0,0,1,.19.38l-.6,1.42a.28.28,0,0,0,.47.29l1.09-1.12a.28.28,0,0,1,.44,0l.89,1.12c.19.24.6,0,.53-.29l-.35-1.42a.31.31,0,0,1,.25-.38l1.49-.3C302,233.88,302,233.43,301.7,233.37Z"/><path class="cls-13" d="M311.16,233.37l-1.44-.3a.27.27,0,0,1-.18-.38l.6-1.42a.28.28,0,0,0-.48-.29l-1.08,1.12a.31.31,0,0,1-.45,0l-.89-1.12c-.19-.24-.6,0-.52.29l.35,1.42a.33.33,0,0,1-.25.38l-1.49.3c-.32.06-.36.51-.05.57l1.43.3a.27.27,0,0,1,.19.38l-.6,1.42a.28.28,0,0,0,.48.29l1.08-1.12a.28.28,0,0,1,.44,0l.89,1.12a.31.31,0,0,0,.53-.29l-.35-1.42a.32.32,0,0,1,.25-.38l1.49-.3C311.43,233.88,311.47,233.43,311.16,233.37Z"/><path class="cls-13" d="M288.35,212.66H270.59a2.23,2.23,0,0,0-2.18,2,1.8,1.8,0,0,0,1.83,2H288a2.23,2.23,0,0,0,2.18-2A1.81,1.81,0,0,0,288.35,212.66Z"/><path class="cls-13" d="M306.39,212.66H296.08a2.22,2.22,0,0,0-2.17,2,1.8,1.8,0,0,0,1.82,2H306a2.22,2.22,0,0,0,2.17-2A1.8,1.8,0,0,0,306.39,212.66Z"/><path class="cls-13" d="M320,303.31a45.29,45.29,0,0,0-16.59,11,19.71,19.71,0,0,0-9.73-4l-.47-.08-.2,2.36.26.1a18.4,18.4,0,0,1,9.33,7.69l.34.55.37-.59a43.39,43.39,0,0,1,16.92-15.56l.23-.12.13-1.57Z"/></g><g id="Policy"><path class="cls-14" d="M230.64,106.42a18,18,0,0,0-2.3,7.25L213.45,283.89h46.08l9.26-35.5-3.05-35.49L275,177.41,272,141.91l9.26-35.49Z"/><polygon class="cls-6" points="267.95 131.91 277.21 96.42 160.68 96.42 151.43 131.91 154.47 167.41 145.22 202.9 148.26 238.4 139.01 273.89 255.53 273.89 264.79 238.4 261.74 202.9 271 167.41 267.95 131.91"/><polygon class="cls-15" points="267.95 131.91 277.21 96.42 160.68 96.42 151.43 131.91 154.47 167.41 145.22 202.9 148.26 238.4 139.01 273.89 255.53 273.89 264.79 238.4 261.74 202.9 271 167.41 267.95 131.91"/><polygon class="cls-16" points="267.95 131.91 151.43 131.91 160.68 96.42 277.21 96.42 267.95 131.91"/><polygon class="cls-16" points="261.74 202.9 145.22 202.9 154.47 167.41 271 167.41 261.74 202.9"/><polygon class="cls-16" points="255.53 273.89 139 273.89 148.26 238.4 264.79 238.4 255.53 273.89"/><path class="cls-14" d="M252.36,146.75a12.74,12.74,0,0,1-3.68.5,10.25,10.25,0,0,1-4.89-1,1.8,1.8,0,0,0-.91-.26h0a1.83,1.83,0,0,0-.84.23l-.06,0h0l0,0a6.35,6.35,0,0,1-1.42.57,13,13,0,0,1-3.43.43c-.35,0-.69,0-1,0a11.56,11.56,0,0,1-2.65-.46,1.8,1.8,0,0,0-.39-.08,1.61,1.61,0,0,0-1.73,1.6h0v1.09H186a6.34,6.34,0,0,0-6.34,6.34v6.4a6.35,6.35,0,0,0,6.34,6.35h51.53l.34,0c.55.46,1.13.92,1.75,1.38s1.5,1.12,2.31,1.71a1.62,1.62,0,0,0,1.9,0c6.48-4.7,10.64-7.94,10.64-16.84v-6.41A1.6,1.6,0,0,0,252.36,146.75Z"/><rect class="cls-6" x="178.67" y="145.83" width="64.22" height="19.09" rx="6.35"/><path class="cls-6" d="M247.69,143.72a10.19,10.19,0,0,1-4.89-1,1.76,1.76,0,0,0-1.8,0,10.2,10.2,0,0,1-4.9,1,12.45,12.45,0,0,1-3.68-.5,1.61,1.61,0,0,0-2.11,1.53v6.4c0,8.91,4.16,12.15,10.64,16.85a1.62,1.62,0,0,0,1.9,0c6.48-4.7,10.64-7.94,10.64-16.85v-6.4a1.62,1.62,0,0,0-2.12-1.53A12.4,12.4,0,0,1,247.69,143.72Z"/><path class="cls-7" d="M247.69,143.72a10.19,10.19,0,0,1-4.89-1,1.76,1.76,0,0,0-1.8,0,10.2,10.2,0,0,1-4.9,1,12.45,12.45,0,0,1-3.68-.5,1.61,1.61,0,0,0-2.11,1.53v6.4c0,8.91,4.16,12.15,10.64,16.85a1.62,1.62,0,0,0,1.9,0c6.48-4.7,10.64-7.94,10.64-16.85v-6.4a1.62,1.62,0,0,0-2.12-1.53A12.4,12.4,0,0,1,247.69,143.72Z"/><path class="cls-17" d="M241,142.7a10.2,10.2,0,0,1-4.9,1,12.5,12.5,0,0,1-3.68-.5,1.61,1.61,0,0,0-2.11,1.53v6.4c0,8.91,4.16,12.15,10.64,16.85a1.62,1.62,0,0,0,1,.3V142.45A1.82,1.82,0,0,0,241,142.7Z"/><path class="cls-13" d="M251.19,149.4a26,26,0,0,0-10.12,7.14,14,14,0,0,0-6.53-2.62l-.31,0v1.52l.17.07a13.38,13.38,0,0,1,6.48,5l.25.35.21-.38a24.81,24.81,0,0,1,10.07-10.08l.15-.07v-1Z"/><path class="cls-6" d="M275.15,106.4h-4.42a4,4,0,0,1-4.05-4.44l.39-4.42a4.93,4.93,0,0,1,4.82-4.44h4.42a4,4,0,0,1,4.06,4.44L280,102A4.94,4.94,0,0,1,275.15,106.4Z"/><polygon class="cls-9" points="276.99 97.53 276.03 96.48 273.61 98.7 271.59 96.48 270.44 97.53 272.47 99.75 270.06 101.97 271.02 103.03 273.43 100.81 275.46 103.03 276.6 101.97 274.57 99.75 276.99 97.53"/></g><g id="Character"><path class="cls-18" d="M176.37,144.54c2.56,2.79,5,5.68,7.43,8.59s4.78,5.87,7.12,8.86c.1.13.06.08.08.12s0,0,0,.06a.61.61,0,0,0,.07.1,1.62,1.62,0,0,0,.18.2,1.22,1.22,0,0,0,.55.26,1.27,1.27,0,0,0,.34,0,1.15,1.15,0,0,0,.18,0l.09,0c.05,0,0,0,.16-.05l2.5-1.36c3.36-1.78,6.75-3.52,10.25-5.08l2.93,3.62c-2.82,2.6-5.76,5.85-8.73,8.23l-2.24,1.76c-.05,0-.29.21-.44.31s-.35.23-.53.33a8.94,8.94,0,0,1-1.12.55,9.45,9.45,0,0,1-2.42.68,10.46,10.46,0,0,1-5-.5,10,10,0,0,1-2.3-1.17,11.35,11.35,0,0,1-1-.8c-.17-.14-.31-.29-.47-.44l-.4-.4c-2.65-2.72-5.26-5.46-7.82-8.25s-5.09-5.61-7.51-8.52Z"/><path class="cls-18" d="M204,158.43l2.33-7.49,6.14,3.06s-.9,5.46-5.36,6.41Z"/><polygon class="cls-18" points="208.78 148.87 214.32 150.39 212.46 154 206.32 150.94 208.78 148.87"/><path class="cls-18" d="M144.09,146.58c-.66,3.18-1.48,6.33-2.33,9.46S140,162.3,139,165.41l-.36,1.16-.18.59a1.45,1.45,0,0,1-.1.24,3.34,3.34,0,0,0-.19.95,3.51,3.51,0,0,0,.58,2.05,5.51,5.51,0,0,0,.65.76l.83.9,1.64,1.84c1.07,1.23,2.15,2.48,3.17,3.78l-3.49,4c-1.44-.82-2.82-1.7-4.2-2.58l-2.05-1.36-1-.69a13,13,0,0,1-1.17-.86,11.59,11.59,0,0,1-3.84-6.44,12.43,12.43,0,0,1-.19-3.9c0-.32.1-.68.15-.95l.11-.6.21-1.21c.56-3.2,1.16-6.4,1.83-9.58s1.39-6.35,2.24-9.49Z"/><path class="cls-18" d="M141.63,177.39l4.12-2.11,1.82,7s-3.31,1.27-5.87-.36Z"/><polygon class="cls-18" points="151.45 173.04 151.64 179.47 147.03 182.49 145.43 175.42 151.45 173.04"/><path class="cls-13" d="M164.94,113.52c.1.49.45.84.77.77s.51-.52.41-1-.45-.85-.77-.78S164.84,113,164.94,113.52Z"/><path class="cls-19" d="M165.34,114.37a18.21,18.21,0,0,0,3.23,3.76,2.93,2.93,0,0,1-2.28.92Z"/><path class="cls-13" d="M162.57,111.13a.26.26,0,0,1-.2-.08.3.3,0,0,1,0-.42,3,3,0,0,1,2.53-1,.29.29,0,0,1,.24.34.3.3,0,0,1-.34.25h0a2.35,2.35,0,0,0-2,.8A.31.31,0,0,1,162.57,111.13Z"/><path class="cls-18" d="M150.52,120.49c1.1,4.58,2.21,13-1.73,16,0,0,1.54,4.65,12,4.65,11.5,0,5.5-3,5.5-3-6.28-1.23-6.12-6.68-5-10.24Z"/><path class="cls-13" d="M147.56,137.39c-.68-1.27-1.44-2.73.12-3.19,1.72-.5,12.75-1.43,16-.49-1,1.77.69,3.95.69,3.95Z"/><polygon class="cls-18" points="156.7 351.97 163.91 351.97 164.63 337.45 157.41 337.45 156.7 351.97"/><polygon class="cls-18" points="110.91 349.97 118.22 350.35 122.66 336.05 115.35 335.66 110.91 349.97"/><path class="cls-13" d="M118,349.77l-6.89-1.49a.56.56,0,0,0-.61.31l-2.39,5.18a.93.93,0,0,0,.66,1.29c2.41.48,3.61.59,6.64,1.25,1.86.4,6.07,1.42,8.64,2s3.46-1.91,2.46-2.37c-4.5-2.06-6.38-3.87-7.6-5.55A1.52,1.52,0,0,0,118,349.77Z"/><path class="cls-13" d="M163.53,351.24h-6.85a.55.55,0,0,0-.53.43l-1.24,5.57a.91.91,0,0,0,.9,1.12c2.47-.05,6-.19,9.15-.19,3.63,0,6.76.2,11,.2,2.57,0,3.29-2.6,2.21-2.84-4.91-1.07-8.91-1.19-13.15-3.8A2.85,2.85,0,0,0,163.53,351.24Z"/><path class="cls-13" d="M135.72,138.66c-5.44,2.59-6.92,18.28-6.92,18.28l13.47,6.23a25.83,25.83,0,0,0,3.6-12.67C146.14,142.39,141.29,136,135.72,138.66Z"/><path class="cls-20" d="M143,148.34c-2.43,3.77-2.2,9.61-1.36,14.55l.6.28a25.83,25.83,0,0,0,3.6-12.67q0-.74,0-1.44Z"/><path class="cls-6" d="M173.31,138.28s6.68,7.54.37,54.2H140.15c-.23-5.15,3-30.27-2-54.52a86.19,86.19,0,0,1,11.22-1.42,123.25,123.25,0,0,1,14.26,0A62.57,62.57,0,0,1,173.31,138.28Z"/><path class="cls-21" d="M173.31,138.28s6.68,7.54.37,54.2H140.15c-.23-5.15,3-30.27-2-54.52a86.19,86.19,0,0,1,11.22-1.42,123.25,123.25,0,0,1,14.26,0A62.57,62.57,0,0,1,173.31,138.28Z"/><path class="cls-14" d="M176.24,152.54l-.12-.11-6.67-3.56c-.68,10.27,3.91,16.7,6.64,19.52A143.39,143.39,0,0,0,176.24,152.54Z"/><polygon class="cls-14" points="164.63 337.45 164.26 344.93 157.04 344.93 157.41 337.45 164.63 337.45"/><polygon class="cls-14" points="115.35 335.66 122.66 336.05 120.37 343.43 113.06 343.04 115.35 335.66"/><path class="cls-18" d="M148.2,115.83c1.61,6,2.25,9.61,6,12.11,5.58,3.75,12.52-.56,12.74-6.93.19-5.74-2.47-14.6-8.92-15.81A8.48,8.48,0,0,0,148.2,115.83Z"/><path class="cls-13" d="M161.79,192.48s-7.12,47.91-11,65.86C146.49,278,123.55,343,123.55,343l-11.23-2.43s14.39-53,18-80.48c1.4-10.73,3.09-28,5.23-42.43,2.07-14,4.62-25.22,4.62-25.22Z"/><path class="cls-6" d="M126.24,339.29s-2.1,4.06-2.1,4.06l-12.62-2.73,1.06-3.8Z"/><path class="cls-22" d="M126.24,339.29s-2.1,4.06-2.1,4.06l-12.62-2.73,1.06-3.8Z"/><path class="cls-23" d="M157.29,209.55c-8.23,1.61-7.36,32.29-6.37,48.08,2.38-11.16,5.85-32.63,8.22-47.86A2.8,2.8,0,0,0,157.29,209.55Z"/><path class="cls-13" d="M173.68,192.48s3.35,46.88,2.67,66c-.71,19.88-10.14,85-10.14,85H155.59s-.39-64-.86-83.49c-.52-21.29-3.09-67.51-3.09-67.51Z"/><path class="cls-6" d="M168.25,339.25c.05,0-.6,4.41-.6,4.41H154.73l-.35-3.93Z"/><path class="cls-22" d="M168.25,339.25c.05,0-.6,4.41-.6,4.41H154.73l-.35-3.93Z"/><path class="cls-13" d="M169.4,147.06c0,12.58,6.69,17.76,6.69,17.76L187,154.18A90.06,90.06,0,0,0,178.19,142C171.9,134.73,169.4,139,169.4,147.06Z"/><path class="cls-14" d="M166.52,123.29a4.12,4.12,0,0,1-2.82,2.6,3.38,3.38,0,0,0-2.69,3l0,0A8.66,8.66,0,0,0,166.52,123.29Z"/><path class="cls-13" d="M163.7,103.88c2.24-2.83-1.21-3-1.21-3,.9-3.38-3.14-1.56-3.14-1.56-2.42-3.34-3.79.72-3.79.72-2.51-2.83-3,1.8-3,1.8-2.52-3.59-3.8,1.58-3.8,1.58-2.32-3.72-3.74,1.13-3.74,1.13-4.79-1.71-2.52,3.27-2.52,3.27-4.08.11-.8,3.27-.8,3.27-4.9,0-.58,2.82-.58,2.82-3.89,2.55,1,3.24,1,3.24-3.17,5,2.28,3.12,2.28,3.12-2.21,4.91,2.68,2.75,2.68,2.75-.31,4.74,2.42,3.45,3.74,2.57.25,1,.73,2,1.61,2.08,1.71.23,2-3,2-3s1.58,1.23,2.91.57.83-2.36.83-2.36a1.67,1.67,0,0,0,2,0c.57-.44.57-3.62-.15-4.74l2.6-1s1.93-.27,1.07-2.82a7.45,7.45,0,0,1-.13-4.56c2.94-1.37.52-3,.52-3C167.49,104.58,163.7,103.88,163.7,103.88Z"/><path class="cls-18" d="M158.43,116.08a7,7,0,0,0,2.53,3.74c1.63,1.21,2.85,0,2.73-1.83-.1-1.66-1.08-4.3-2.88-4.79S158,114.27,158.43,116.08Z"/></g></g></svg>