<svg xmlns="http://www.w3.org/2000/svg" viewBox="0 0 483.28 437.83"><defs><style>.cls-1,.cls-9{fill:#92e3a9;}.cls-11,.cls-2,.cls-7{fill:#fff;}.cls-2{opacity:0.7;}.cls-13,.cls-3,.cls-4{fill:none;}.cls-11,.cls-12,.cls-3,.cls-4,.cls-6,.cls-7,.cls-9{stroke:#263238;}.cls-13,.cls-3,.cls-6,.cls-7,.cls-9{stroke-linecap:round;stroke-linejoin:round;}.cls-11,.cls-12,.cls-4{stroke-miterlimit:10;}.cls-12,.cls-5,.cls-6{fill:#263238;}.cls-8{opacity:0.2;}.cls-10{fill:#ccc;}.cls-13{stroke:#fff;}</style></defs><g id="Layer_2" data-name="Layer 2"><g id="Background_Simple" data-name="Background Simple"><path class="cls-1" d="M468.43,254.82c-13.5,40.9-42.57,85.73-85.35,100.32-64.64,22.05-70.42,75.07-187.74,74.7a236.11,236.11,0,0,1-50.93-5.47,196.78,196.78,0,0,1-24.12-7C50.79,392.3,12.74,332.68,7.31,269c-7.16-83.79,49.87-126.07,87-151S173.87.55,289.2,0a229.38,229.38,0,0,1,52.36,5.6c39.16,9,79.46,30.67,103.66,63.7Q448,73,450.45,76.92C483.1,127.72,486.83,199.06,468.43,254.82Z"/><path class="cls-2" d="M468.43,254.82c-13.5,40.9-42.57,85.73-85.35,100.32-64.64,22.05-70.42,75.07-187.74,74.7a236.11,236.11,0,0,1-50.93-5.47,196.78,196.78,0,0,1-24.12-7C50.79,392.3,12.74,332.68,7.31,269c-7.16-83.79,49.87-126.07,87-151S173.87.55,289.2,0a229.38,229.38,0,0,1,52.36,5.6c39.16,9,79.46,30.67,103.66,63.7Q448,73,450.45,76.92C483.1,127.72,486.83,199.06,468.43,254.82Z"/></g><g id="Graphics"><rect class="cls-3" x="34.23" y="43.62" width="13.69" height="13.69"/><line class="cls-3" x1="53.4" y1="50.46" x2="113.65" y2="50.46"/><rect class="cls-3" x="34.23" y="62.79" width="13.69" height="13.69"/><line class="cls-3" x1="53.4" y1="69.64" x2="113.65" y2="69.64"/><rect class="cls-3" x="34.23" y="81.96" width="13.69" height="13.69"/><line class="cls-3" x1="53.4" y1="88.81" x2="113.65" y2="88.81"/><rect class="cls-3" x="34.23" y="101.13" width="13.69" height="13.69"/><line class="cls-3" x1="53.4" y1="107.98" x2="113.65" y2="107.98"/><rect class="cls-3" x="34.23" y="120.3" width="13.69" height="13.69"/><line class="cls-3" x1="53.4" y1="127.15" x2="113.65" y2="127.15"/><rect class="cls-3" x="34.23" y="139.47" width="13.69" height="13.69"/><line class="cls-3" x1="53.4" y1="146.32" x2="113.65" y2="146.32"/><rect class="cls-3" x="422.13" y="285.24" width="9.42" height="9.42"/><line class="cls-3" x1="435.32" y1="289.95" x2="476.77" y2="289.95"/><rect class="cls-3" x="422.13" y="298.42" width="9.42" height="9.42"/><line class="cls-3" x1="435.32" y1="303.13" x2="476.77" y2="303.13"/><rect class="cls-3" x="422.13" y="311.61" width="9.42" height="9.42"/><line class="cls-3" x1="435.32" y1="316.32" x2="476.77" y2="316.32"/><rect class="cls-3" x="422.13" y="324.8" width="9.42" height="9.42"/><line class="cls-3" x1="435.32" y1="329.51" x2="476.77" y2="329.51"/><rect class="cls-3" x="422.13" y="337.99" width="9.42" height="9.42"/><line class="cls-3" x1="435.32" y1="342.7" x2="476.77" y2="342.7"/><rect class="cls-3" x="422.13" y="351.18" width="9.42" height="9.42"/><line class="cls-3" x1="435.32" y1="355.88" x2="476.77" y2="355.88"/><rect class="cls-3" x="200.56" y="42.3" width="59.3" height="42.45"/><polyline class="cls-3" points="200.56 42.3 230.21 63.52 259.87 42.3"/><rect class="cls-3" x="264.62" y="29.29" width="36.34" height="26.01"/><polyline class="cls-3" points="264.62 29.29 282.79 42.29 300.96 29.29"/><rect class="cls-3" x="33.34" y="378.51" width="36.34" height="26.01"/><polyline class="cls-3" points="33.34 378.51 51.51 391.52 69.68 378.51"/></g><g id="Floor"><line class="cls-4" x1="11.98" y1="437.23" x2="476.23" y2="437.23"/></g><g id="Plants"><path class="cls-5" d="M10.27,310c3.26-.54,9.39-4.69,9.39-4.69s-4-3.21-4.24-3.38c-3.21-2-10.57-3.91-13.78-1.16a5,5,0,0,0,0,7.43C3.83,310.25,7.49,310.45,10.27,310Z"/><path class="cls-5" d="M24.05,326.63c2.88-1.32,7.4-6.51,7.75-6.93a89,89,0,0,0,9.38,7.14c1.91,1.28,3.87,2.5,5.85,3.71-1-.42-1.87-.78-2-.82-3.62-1.05-11.23-1-13.59,2.52a5,5,0,0,0,2,7.16c2.62,1.41,6.2.64,8.76-.53s6.53-5.54,7.56-6.71c.76.46,1.52.92,2.29,1.37,3.67,2.16,7.35,4.3,10.89,6.52,1.25.78,2.45,1.59,3.65,2.4-.87-.37-1.61-.67-1.73-.71-3.62-1.05-11.23-1-13.59,2.52a5,5,0,0,0,2,7.16c2.63,1.42,6.21.64,8.77-.53s6.15-5.12,7.37-6.5c1.21.87,2.42,1.73,3.56,2.63.75.63,1.53,1.18,2.26,1.85l2.18,1.93c1.34,1.28,2.73,2.59,4,3.88.9.88,1.74,1.74,2.58,2.6-1.23-.79-3.68-2.28-3.9-2.38-3.41-1.6-10.94-2.67-13.81.43a5,5,0,0,0,.88,7.37c2.37,1.8,6,1.57,8.74.8,3-.84,8-5.09,8.67-5.63,1.39,1.43,2.74,2.84,4,4.19,2.75,3,5.14,5.69,7.12,8l2.32-1.5c-2.1-2.37-4.65-5.16-7.63-8.23-1.4-1.46-2.94-3-4.53-4.55a53.07,53.07,0,0,0,3.38-5.41c3.08.79,9.21.09,10,0,.37,2,.72,3.88,1,5.69.62,3.79,1.1,7.2,1.46,10.13l2.51-1.62c-.4-2.66-.89-5.66-1.51-8.94-.37-2-.8-4.12-1.27-6.3.76-.29,6.93-2.7,9.1-4.92,2-2,3.92-5.11,3.48-8.06a5,5,0,0,0-6.06-4.3c-4.08,1-6.75,8.16-7,11.92,0,.23.1,2.65.2,4.18-.19-.89-.37-1.76-.59-2.67-.4-1.81-.86-3.6-1.35-5.53-.27-.92-.54-1.86-.81-2.8s-.64-1.9-1-2.86c-.78-2.21-1.68-4.42-2.63-6.62,1.58-.36,7.18-1.72,9.44-3.42s4.65-4.46,4.66-7.44a5,5,0,0,0-5.34-5.17c-4.19.41-7.91,7.05-8.71,10.73,0,.23-.33,2.94-.45,4.42-.59-1.31-1.16-2.63-1.8-3.95-1.83-3.79-3.81-7.58-5.76-11.36-.6-1.16-1.18-2.32-1.76-3.48.56-.13,7.25-1.6,9.78-3.5,2.25-1.69,4.65-4.46,4.66-7.44a5,5,0,0,0-5.33-5.17c-4.2.41-7.91,7.05-8.71,10.73-.06.27-.46,4.17-.51,5.16-1.29-2.55-2.56-5.11-3.7-7.69a86.82,86.82,0,0,1-4-10.68c.26-.05,7.25-1.56,9.84-3.51,2.26-1.68,4.65-4.46,4.67-7.44a5,5,0,0,0-5.34-5.17c-4.2.41-7.91,7.05-8.71,10.73-.07.29-.49,4.48-.51,5.24-.06-.21-.15-.42-.21-.63a64.73,64.73,0,0,1-2-11.25c-.21-2.1-.3-4.12-.34-6.08,1.33-.15,7.41-.89,9.93-2.38S89.69,265,90,262.05a5,5,0,0,0-4.73-5.73c-4.22-.05-8.64,6.14-9.84,9.71-.07.19-.51,2.24-.81,3.74,0-.89,0-1.81,0-2.66,0-3.19.28-6.1.51-8.69.14-1.46.3-2.79.46-4,1.23-.82,6.14-4.21,7.67-6.66s2.73-5.84,1.67-8.62a5,5,0,0,0-6.84-2.9c-3.77,1.9-4.84,9.43-4.26,13.15,0,.32,1.41,5.27,1.47,5.22l.08-.05c-.18,1.19-.36,2.47-.52,3.86-.29,2.59-.59,5.51-.7,8.71a88.36,88.36,0,0,0,.13,10.35,66.12,66.12,0,0,0,1.79,11.43c0,.05,0,.09,0,.13-.65-1.05-2.57-3.92-2.74-4.12-2.44-2.88-8.83-7-12.73-5.4a5,5,0,0,0-2.29,7.07c1.41,2.62,4.83,3.95,7.61,4.39,3.13.49,9.76-1.35,10.29-1.5a88.7,88.7,0,0,0,3.88,11.13C81,302.7,82,304.8,83,306.89c-.59-.89-1.13-1.68-1.22-1.78-2.43-2.88-8.82-7-12.72-5.4a5,5,0,0,0-2.29,7.07c1.4,2.63,4.82,4,7.6,4.39s8.51-1,10-1.42l1.16,2.4C87.37,316,89.26,319.8,91,323.6c.61,1.33,1.16,2.68,1.72,4-.53-.79-1-1.45-1.06-1.54-2.43-2.88-8.82-7-12.72-5.4a5,5,0,0,0-2.29,7.07c1.4,2.63,4.82,4,7.6,4.39s8-.87,9.73-1.35c.53,1.39,1.07,2.78,1.52,4.15.29.94.63,1.83.86,2.79s.51,1.89.76,2.82c.41,1.8.84,3.67,1.2,5.44.26,1.23.48,2.41.71,3.59-.59-1.33-1.81-3.93-1.93-4.14a19.37,19.37,0,0,0-7.3-6.51,5.7,5.7,0,0,0-.66-.89,5,5,0,0,0-7.42-.25c-2.84,3.13-1.13,10.54.75,13.8.11.2,1.54,2.15,2.47,3.37l-2-1.9c-1.34-1.28-2.71-2.52-4.18-3.86l-2.22-1.89c-.73-.64-1.58-1.23-2.38-1.86-1.87-1.41-3.84-2.76-5.85-4.07,1.12-1.17,5-5.39,6-8.06s1.42-6.28-.22-8.77a5,5,0,0,0-7.3-1.37c-3.28,2.65-2.71,10.24-1.35,13.75.09.22,1.35,2.63,2.07,3.94-1.22-.77-2.43-1.56-3.68-2.3-3.63-2.16-7.36-4.23-11.07-6.31-1.14-.63-2.27-1.28-3.4-1.92.4-.42,5.17-5.34,6.23-8.32,1-2.65,1.42-6.29-.21-8.78a5,5,0,0,0-7.3-1.37c-3.28,2.66-2.72,10.25-1.35,13.76.1.26,1.92,3.73,2.42,4.59-2.49-1.42-5-2.86-7.33-4.38a85.08,85.08,0,0,1-9.22-6.7c.18-.19,5.18-5.3,6.27-8.35,1-2.65,1.42-6.29-.21-8.78a5,5,0,0,0-7.31-1.37c-3.27,2.65-2.71,10.24-1.35,13.75.11.28,2.07,4,2.47,4.66-.17-.14-.36-.27-.52-.42a64.17,64.17,0,0,1-7.89-8.27c-1.33-1.63-2.51-3.27-3.63-4.88,1-.86,5.69-4.83,7-7.47s2.1-6.09.75-8.75a5,5,0,0,0-7.11-2.16c-3.55,2.28-3.82,9.88-2.85,13.52.05.2.81,2.15,1.38,3.57-.49-.74-1-1.49-1.47-2.21-1.72-2.68-3.14-5.24-4.37-7.52-.7-1.3-1.29-2.5-1.84-3.62.57-1.36,2.8-6.9,2.72-9.79s-.94-6.37-3.36-8.1A5,5,0,0,0,4,274.29c-2.1,3.66,1.17,10.53,3.7,13.32.22.24,4.08,3.61,4.11,3.54l0-.08c.5,1.09,1.06,2.25,1.69,3.5,1.19,2.32,2.55,4.92,4.23,7.65a88.86,88.86,0,0,0,5.81,8.55,65.13,65.13,0,0,0,7.81,8.56l.1.08c-1.12-.51-4.31-1.85-4.57-1.93-3.61-1.05-11.22-1-13.59,2.52a5,5,0,0,0,2,7.16C17.9,328.58,21.49,327.8,24.05,326.63Z"/><path class="cls-5" d="M74.07,270.74c.08,0-1.54-4.86-1.67-5.16-1.59-3.41-6.67-9.08-10.85-8.56a5,5,0,0,0-4.08,6.21c.67,2.9,3.61,5.09,6.18,6.24C66.66,270.83,74.07,270.74,74.07,270.74Z"/><path class="cls-5" d="M372.57,50.09c2.24,2.24,8.91,4.68,8.92,4.68s.27-4.88.25-5.2c-.26-3.6-2.89-10.41-6.82-11.36a4.79,4.79,0,0,0-5.77,4.18C368.76,45.22,370.66,48.18,372.57,50.09Z"/><path class="cls-5" d="M367.35,70.14c2.65,1.5,9.22,2.1,9.74,2.15a84.54,84.54,0,0,0-.3,11.3c.08,2.2.22,4.41.39,6.63-.22-1-.44-1.89-.48-2-1.21-3.4-5.54-9.28-9.58-9.16a4.79,4.79,0,0,0-4.46,5.56c.37,2.83,3,5.19,5.33,6.52s8,2,9.46,2.13c.07.84.14,1.69.22,2.54.37,4.07.77,8.13,1,12.13.09,1.41.13,2.8.18,4.19-.21-.89-.39-1.63-.43-1.74-1.2-3.41-5.53-9.28-9.57-9.17a4.79,4.79,0,0,0-4.46,5.56c.37,2.83,3,5.19,5.33,6.52s7.43,1.92,9.19,2.1c0,1.43,0,2.85-.06,4.23-.06,1-.05,1.86-.17,2.8s-.19,1.86-.28,2.78c-.25,1.76-.49,3.58-.77,5.29-.18,1.2-.38,2.33-.58,3.47-.08-1.4-.29-4.15-.33-4.37-.68-3.55-4.07-10-8.08-10.51a4.79,4.79,0,0,0-5.25,4.82c-.06,2.85,2.17,5.58,4.28,7.25,2.33,1.85,8.48,3.4,9.25,3.59-.34,1.89-.68,3.72-1,5.44-.77,3.81-1.55,7.19-2.25,10l2.47,1c.67-3,1.41-6.51,2.13-10.55.35-1.91.68-4,1-6.08a51,51,0,0,0,6.1-.4c1.11,2.84,5.1,7.22,5.62,7.78-1.32,1.39-2.62,2.73-3.87,4-2.59,2.61-5,4.89-7.06,6.82l2.67,1c1.84-1.8,3.9-3.86,6.11-6.18,1.35-1.41,2.76-2.94,4.19-4.52.65.42,6,3.87,8.93,4.32,2.67.41,6.18.18,8.22-1.81a4.79,4.79,0,0,0,0-7.13c-3.1-2.59-10.14-.67-13.2,1.25-.18.12-2,1.57-3.13,2.5l1.74-2c1.18-1.33,2.32-2.69,3.55-4.16l1.72-2.2c.59-.72,1.12-1.56,1.69-2.34,1.29-1.85,2.5-3.79,3.67-5.77,1.17,1,5.37,4.63,8,5.44s6.08,1.11,8.4-.55a4.78,4.78,0,0,0,1-7.05c-2.67-3-9.92-2.2-13.23-.76-.21.08-2.47,1.39-3.7,2.12.7-1.19,1.4-2.38,2.07-3.61,1.93-3.55,3.76-7.21,5.62-10.85.56-1.12,1.14-2.22,1.71-3.33.42.37,5.31,4.75,8.21,5.66,2.58.8,6.08,1.11,8.4-.55a4.79,4.79,0,0,0,1-7c-2.67-3-9.92-2.2-13.24-.76-.25.11-3.5,2-4.3,2.5,1.26-2.44,2.55-4.86,3.91-7.19a83.68,83.68,0,0,1,6.07-9.1c.19.17,5.28,4.76,8.25,5.69,2.57.81,6.08,1.12,8.4-.54a4.78,4.78,0,0,0,1-7c-2.67-3-9.92-2.21-13.23-.77-.26.12-3.76,2.14-4.37,2.55.13-.17.25-.36.38-.52a61.45,61.45,0,0,1,7.63-7.87c1.51-1.34,3-2.54,4.54-3.67.86,1,4.84,5.26,7.42,6.39s5.92,1.78,8.41.38a4.78,4.78,0,0,0,1.8-6.89c-2.32-3.31-9.61-3.28-13.07-2.21-.18,0-2,.85-3.36,1.46.69-.5,1.39-1,2.06-1.5,2.5-1.76,4.9-3.21,7-4.48,1.22-.71,2.34-1.33,3.39-1.9,1.34.49,6.73,2.42,9.49,2.24s6.07-1.15,7.64-3.54a4.78,4.78,0,0,0-1.58-7c-3.58-1.87-10,1.52-12.62,4.06-.22.22-3.3,4-3.23,4.07l.08,0c-1,.53-2.12,1.11-3.3,1.76-2.17,1.23-4.61,2.63-7.16,4.34a84.35,84.35,0,0,0-8,5.9,63.08,63.08,0,0,0-7.89,7.81l-.08.1c.45-1.09,1.61-4.2,1.67-4.45.87-3.5.5-10.79-2.94-12.93a4.79,4.79,0,0,0-6.78,2.18c-1.25,2.57-.37,6,.85,8.38,1.37,2.72,6.52,6.84,6.93,7.17a84.74,84.74,0,0,0-6.48,9.26c-1.15,1.88-2.25,3.8-3.33,5.75.36-1,.68-1.83.71-2,.87-3.51.5-10.79-2.94-12.93a4.79,4.79,0,0,0-6.78,2.18c-1.26,2.57-.37,6,.85,8.38s5.55,6,6.71,7c-.41.75-.82,1.49-1.22,2.24-1.94,3.6-3.85,7.21-5.83,10.69-.7,1.22-1.43,2.41-2.16,3.59.32-.85.58-1.57.61-1.69.87-3.5.5-10.79-2.94-12.93a4.79,4.79,0,0,0-6.78,2.18c-1.26,2.57-.37,6,.84,8.38s5.14,5.7,6.51,6.82c-.78,1.19-1.57,2.38-2.38,3.5-.57.76-1.07,1.52-1.69,2.24s-1.18,1.45-1.77,2.16c-1.17,1.34-2.38,2.72-3.55,4-.82.9-1.61,1.73-2.4,2.57.71-1.21,2.05-3.61,2.13-3.83a18.53,18.53,0,0,0,1-9.33,5.68,5.68,0,0,0,.33-1,4.79,4.79,0,0,0-4-5.91c-4-.46-8.83,5-10.31,8.32-.09.19-.81,2.41-1.24,3.81.13-.86.26-1.7.38-2.59.25-1.76.45-3.52.67-5.42.07-.92.14-1.85.22-2.79s.07-1.92.11-2.89c.06-2.25,0-4.53-.11-6.83,1.54.21,7,.9,9.63.14s5.68-2.42,6.71-5.09a4.79,4.79,0,0,0-3-6.45c-3.9-1.06-9.49,3.64-11.46,6.67-.12.18-1.29,2.52-1.91,3.81-.08-1.38-.15-2.76-.27-4.16-.35-4-.84-8.09-1.3-12.14-.14-1.25-.27-2.49-.4-3.73.54.08,7.05,1,10,.19,2.59-.75,5.69-2.42,6.71-5.09a4.79,4.79,0,0,0-3-6.45c-3.9-1.06-9.49,3.64-11.46,6.66-.15.23-1.82,3.59-2.21,4.47-.29-2.74-.55-5.46-.7-8.16a83.09,83.09,0,0,1,0-10.94c.25,0,7,1.06,10,.2,2.59-.75,5.69-2.42,6.71-5.09a4.79,4.79,0,0,0-3-6.45c-3.9-1.06-9.49,3.64-11.46,6.66-.15.24-2,3.86-2.24,4.53,0-.21,0-.43,0-.64A62.86,62.86,0,0,1,380,61c.52-1.95,1.13-3.79,1.76-5.57,1.25.32,6.95,1.72,9.72,1.24s5.92-1.78,7.23-4.32a4.79,4.79,0,0,0-2.3-6.74c-3.77-1.48-9.84,2.57-12.13,5.36-.12.15-1.22,1.84-2,3.08.3-.8.59-1.63.89-2.39,1.13-2.84,2.33-5.38,3.41-7.62.62-1.27,1.22-2.4,1.78-3.46,1.38-.32,7-1.69,9.15-3.36S402,33,402,30.09a4.78,4.78,0,0,0-5.15-4.92c-4,.42-7.54,6.81-8.29,10.34-.06.31-.52,5.2-.45,5.19l.08,0c-.56,1-1.15,2.09-1.77,3.28-1.14,2.22-2.4,4.74-3.59,7.57a84.5,84.5,0,0,0-3.39,9.33,61.18,61.18,0,0,0-2.28,10.86.66.66,0,0,0,0,.14c-.23-1.17-1-4.4-1.06-4.64-1.21-3.41-5.54-9.28-9.58-9.17A4.8,4.8,0,0,0,362,63.62C362.39,66.45,365,68.8,367.35,70.14Z"/><path class="cls-5" d="M438.88,77.74c.05.05,2.93-3.93,3.08-4.2,1.77-3.15,3.33-10.28.58-13.24a4.78,4.78,0,0,0-7.11.31c-1.89,2.14-1.94,5.66-1.4,8.3C434.66,72,438.88,77.73,438.88,77.74Z"/><path class="cls-5" d="M411.86,187.9c1.12,2.33,5.59,6,5.6,6s1.53-3.69,1.6-3.93c.78-2.85.6-8.81-2.17-10.61a3.91,3.91,0,0,0-5.58,1.66C410.24,183.11,410.91,185.91,411.86,187.9Z"/><path class="cls-5" d="M402.4,201.93c1.63,1.88,6.53,4.12,6.92,4.3a68.8,68.8,0,0,0-3.3,8.63c-.54,1.71-1,3.45-1.49,5.21.09-.84.17-1.58.17-1.69,0-2.95-1.75-8.65-4.9-9.66a3.92,3.92,0,0,0-4.94,3.08c-.48,2.28.89,4.8,2.34,6.47s5.6,3.69,6.7,4.2c-.17.68-.35,1.35-.52,2-.81,3.24-1.61,6.48-2.49,9.63-.31,1.11-.66,2.19-1,3.27.08-.74.15-1.36.15-1.46,0-3-1.75-8.65-4.9-9.66a3.92,3.92,0,0,0-4.94,3.08c-.48,2.28.89,4.8,2.34,6.47s5.2,3.49,6.51,4.11c-.39,1.1-.77,2.2-1.19,3.25-.31.71-.55,1.41-.9,2.1s-.65,1.39-1,2.07c-.66,1.29-1.34,2.63-2,3.87-.47.87-.93,1.68-1.39,2.51.32-1.1.9-3.27.93-3.46.44-2.92-.42-8.81-3.37-10.29a3.91,3.91,0,0,0-5.35,2.29c-.83,2.19.15,4.89,1.32,6.75,1.3,2.06,5.61,4.92,6.15,5.28-.77,1.36-1.53,2.68-2.27,3.91-1.62,2.73-3.14,5.12-4.45,7.12l1.64,1.42c1.32-2.11,2.85-4.64,4.5-7.55.79-1.39,1.61-2.88,2.43-4.42a41.65,41.65,0,0,0,4.81,1.35c.08,2.49,2,6.94,2.21,7.52-1.4.71-2.76,1.39-4.06,2-2.7,1.3-5.16,2.41-7.28,3.33l1.77,1.53c1.91-.89,4.05-1.92,6.38-3.11,1.42-.71,2.92-1.51,4.46-2.34.38.5,3.56,4.61,5.7,5.75,1.95,1,4.71,1.82,6.83.84a3.92,3.92,0,0,0,1.9-5.5c-1.69-2.85-7.63-3.28-10.51-2.62-.17,0-2,.66-3.09,1.07l1.88-1c1.27-.7,2.51-1.44,3.85-2.24l1.93-1.23c.65-.39,1.29-.89,1.94-1.34,1.49-1.08,2.95-2.24,4.39-3.45.62,1.11,2.88,5,4.65,6.34s4.39,2.51,6.63,1.87a3.93,3.93,0,0,0,2.71-5.16c-1.24-3.06-7-4.39-10-4.18-.19,0-2.28.4-3.43.64.86-.73,1.73-1.46,2.58-2.22,2.44-2.22,4.85-4.54,7.27-6.84l2.22-2.1c.22.4,2.81,5.1,4.79,6.59,1.77,1.32,4.38,2.51,6.62,1.86A3.91,3.91,0,0,0,444,247c-1.23-3.07-7-4.39-10-4.18-.22,0-3.23.57-4,.76,1.64-1.54,3.28-3.06,5-4.48a68.07,68.07,0,0,1,7.15-5.37c.1.19,2.77,5.11,4.81,6.63,1.76,1.32,4.38,2.51,6.62,1.86a3.91,3.91,0,0,0,2.71-5.15c-1.23-3.07-7.05-4.39-10-4.18-.23,0-3.47.62-4.05.77l.43-.3a51.49,51.49,0,0,1,8-4c1.53-.62,3-1.13,4.5-1.6.4,1,2.3,5.37,4,6.94s4.08,3,6.38,2.58a3.9,3.9,0,0,0,3.25-4.82c-.89-3.18-6.52-5.14-9.46-5.25-.17,0-1.8.11-3,.21.66-.2,1.34-.42,2-.59,2.4-.68,4.65-1.15,6.64-1.54,1.13-.22,2.16-.4,3.13-.55.89.74,4.53,3.69,6.7,4.3s5,.76,6.85-.65a3.91,3.91,0,0,0,.67-5.78c-2.26-2.42-8.16-1.56-10.83-.3-.23.11-3.64,2.22-3.59,2.26l.05,0c-.93.13-1.93.28-3,.46-2,.36-4.26.78-6.69,1.4a68.9,68.9,0,0,0-7.75,2.39,50.14,50.14,0,0,0-8.2,3.87l-.09.06c.64-.73,2.38-2.8,2.49-3,1.63-2.46,3.32-8.18,1.25-10.76a3.92,3.92,0,0,0-5.82-.16c-1.66,1.64-1.9,4.5-1.62,6.69.32,2.46,3.17,7,3.4,7.4a69.62,69.62,0,0,0-7.51,5.38c-1.39,1.13-2.76,2.32-4.12,3.52.54-.64,1-1.22,1.07-1.31,1.63-2.46,3.32-8.18,1.25-10.75a3.91,3.91,0,0,0-5.82-.17c-1.66,1.64-1.91,4.5-1.62,6.69s2.64,6.17,3.28,7.2l-1.55,1.4c-2.47,2.25-4.92,4.51-7.4,6.65-.87.76-1.75,1.47-2.63,2.18.47-.57.87-1.05.92-1.13,1.63-2.46,3.32-8.18,1.25-10.76a3.92,3.92,0,0,0-5.82-.16c-1.66,1.64-1.91,4.5-1.62,6.69s2.41,5.78,3.16,7c-.92.71-1.85,1.42-2.78,2.06-.65.42-1.24.87-1.91,1.26l-1.95,1.19c-1.27.71-2.57,1.45-3.82,2.11-.87.47-1.71.89-2.55,1.33.88-.74,2.56-2.23,2.69-2.37a15.19,15.19,0,0,0,3.28-6.93,4.51,4.51,0,0,0,.53-.69,3.92,3.92,0,0,0-1.46-5.63c-3-1.44-8.17,1.48-10.21,3.61-.12.13-1.27,1.64-2,2.6.33-.63.66-1.24,1-1.89.67-1.29,1.3-2.6,2-4,.3-.69.61-1.38.92-2.08s.58-1.46.88-2.2c.65-1.72,1.22-3.49,1.76-5.29,1.13.58,5.17,2.59,7.38,2.72s5-.33,6.55-2.1a3.91,3.91,0,0,0-.58-5.79c-2.72-1.88-8.3.22-10.64,2-.14.11-1.68,1.59-2.5,2.42.31-1.09.63-2.17.92-3.27.82-3.2,1.55-6.47,2.29-9.72.23-1,.47-2,.7-3,.4.22,5.15,2.71,7.63,2.86,2.2.12,5-.33,6.55-2.11a3.91,3.91,0,0,0-.58-5.79c-2.73-1.87-8.3.23-10.64,2-.18.13-2.38,2.26-2.92,2.83.52-2.18,1.06-4.35,1.67-6.47a70.28,70.28,0,0,1,3-8.42c.19.1,5.14,2.73,7.67,2.88,2.2.12,5-.33,6.55-2.1a3.92,3.92,0,0,0-.58-5.8c-2.72-1.87-8.3.23-10.64,2-.18.14-2.55,2.43-2.95,2.88.07-.16.12-.33.19-.49a50.39,50.39,0,0,1,4.48-7.75c.94-1.36,1.9-2.61,2.87-3.81.87.59,4.88,3.21,7.15,3.59s5,.24,6.74-1.36a3.91,3.91,0,0,0,.06-5.82c-2.5-2.17-8.27-.69-10.8.84-.13.08-1.43,1.08-2.37,1.82.44-.53.89-1.09,1.33-1.59,1.64-1.89,3.25-3.52,4.69-4.95.83-.81,1.59-1.52,2.31-2.18,1.16.13,5.81.58,8-.11s4.59-2.12,5.35-4.32a3.9,3.9,0,0,0-2.63-5.19c-3.21-.77-7.66,3.2-9.19,5.72-.13.22-1.81,3.86-1.75,3.87h.07c-.71.62-1.46,1.29-2.27,2.05-1.47,1.4-3.13,3-4.81,4.86a68.64,68.64,0,0,0-5.15,6.26,51.46,51.46,0,0,0-4.7,7.75.42.42,0,0,0,0,.1c.14-1,.44-3.65.44-3.86,0-2.95-1.75-8.65-4.9-9.66a3.92,3.92,0,0,0-4.94,3.08C399.58,197.74,401,200.26,402.4,201.93Z"/><path class="cls-5" d="M455.45,227.19c0,.06,3.31-2.23,3.51-2.4,2.21-1.94,5.35-7,4-10a3.9,3.9,0,0,0-5.57-1.69c-2,1.14-3,3.83-3.33,6C453.75,221.64,455.45,227.19,455.45,227.19Z"/></g><g id="Screen"><rect class="cls-6" x="85.96" y="106.42" width="326.36" height="312.72"/><rect class="cls-7" x="91.38" y="102.2" width="326.36" height="312.72"/><line class="cls-3" x1="251.7" y1="117.3" x2="251.7" y2="398.32"/><rect class="cls-7" x="118.62" y="280.45" width="106.69" height="18.09"/><rect class="cls-7" x="118.62" y="314.14" width="106.69" height="18.09"/><rect class="cls-6" x="137.53" y="357.62" width="68.86" height="21.46" rx="4.84"/></g><g id="Bricks"><g class="cls-8"><rect x="269.26" y="160.88" width="21.28" height="9.67"/><rect x="281.16" y="148.85" width="21.28" height="9.67"/><rect x="294.11" y="160.88" width="21.28" height="9.67"/><rect x="331.15" y="127.59" width="21.28" height="9.67"/><rect x="343.05" y="115.57" width="21.28" height="9.67"/><rect x="356.01" y="127.59" width="21.28" height="9.67"/><rect x="294.11" y="191.74" width="21.28" height="9.67"/><rect x="306.01" y="179.72" width="21.28" height="9.67"/><rect x="318.97" y="191.74" width="21.28" height="9.67"/><rect x="360.65" y="282.73" width="21.28" height="9.67"/><rect x="372.55" y="270.71" width="21.28" height="9.67"/><rect x="385.51" y="282.73" width="21.28" height="9.67"/><rect x="360.65" y="382.94" width="21.28" height="9.67"/><rect x="372.55" y="370.92" width="21.28" height="9.67"/><rect x="385.51" y="382.94" width="21.28" height="9.67"/><rect x="274.87" y="304.78" width="21.28" height="9.67"/><rect x="286.77" y="292.75" width="21.28" height="9.67"/><rect x="299.73" y="304.78" width="21.28" height="9.67"/><rect x="274.87" y="339.65" width="21.28" height="9.67"/><rect x="286.77" y="327.63" width="21.28" height="9.67"/><rect x="299.73" y="339.65" width="21.28" height="9.67"/><rect x="324.98" y="339.65" width="21.28" height="9.67"/><rect x="336.88" y="327.63" width="21.28" height="9.67"/><rect x="349.83" y="339.65" width="21.28" height="9.67"/></g></g><g id="Email"><rect class="cls-9" x="140.57" y="147.6" width="60.12" height="39.96"/><polygon class="cls-6" points="200.69 147.6 170.63 167.59 140.57 147.6 200.69 147.6"/><polygon class="cls-7" points="148.55 153.12 148.55 127.31 192.66 127.31 192.66 152.92 170.63 167.59 148.55 153.12"/><line class="cls-3" x1="156.89" y1="136.25" x2="183.52" y2="136.25"/><line class="cls-3" x1="156.89" y1="142.96" x2="183.52" y2="142.96"/><line class="cls-3" x1="156.89" y1="149.67" x2="183.52" y2="149.67"/><polygon class="cls-9" points="140.57 187.57 170.71 162.47 200.69 187.57 140.57 187.57"/></g><g id="Text"><path class="cls-5" d="M113.27,231.37v-4.45a11.15,11.15,0,0,0,1.89-.14,2.37,2.37,0,0,0,1.19-.5,2.08,2.08,0,0,0,.61-1.05,6.91,6.91,0,0,0,.19-1.81v-24h6.34v24.24a12.72,12.72,0,0,1-.61,4.28,4.55,4.55,0,0,1-2.17,2.56,9.3,9.3,0,0,1-4.36.84Z"/><path class="cls-5" d="M136.87,231a10.26,10.26,0,0,1-5.42-1.23,6.82,6.82,0,0,1-2.86-3.51,15.44,15.44,0,0,1-.87-5.48v-11.6a15.25,15.25,0,0,1,.87-5.46,6.66,6.66,0,0,1,2.86-3.46,13,13,0,0,1,10.89,0,6.73,6.73,0,0,1,2.88,3.46,15.1,15.1,0,0,1,.87,5.44v11.6a15.44,15.44,0,0,1-.87,5.48,6.81,6.81,0,0,1-2.88,3.51A10.45,10.45,0,0,1,136.87,231Zm0-4.57a2.52,2.52,0,0,0,1.8-.56,2.77,2.77,0,0,0,.77-1.5,9.87,9.87,0,0,0,.19-2V207.63a9.7,9.7,0,0,0-.19-2,2.78,2.78,0,0,0-.77-1.48,2.52,2.52,0,0,0-1.8-.55,2.4,2.4,0,0,0-1.73.55,2.78,2.78,0,0,0-.77,1.48,9.7,9.7,0,0,0-.19,2v14.72a10.68,10.68,0,0,0,.17,2,2.62,2.62,0,0,0,.75,1.5A2.46,2.46,0,0,0,136.87,226.42Z"/><path class="cls-5" d="M150.39,230.57V199.45h6.3v31.12Z"/><path class="cls-5" d="M161.45,230.57V199.45h4.42l6.92,16.21V199.45H178v31.12h-4.22l-6.92-17.22v17.22Z"/><path class="cls-5" d="M201.11,231a10.46,10.46,0,0,1-5.5-1.21,6.44,6.44,0,0,1-2.75-3.5,17.27,17.27,0,0,1-.78-5.55V199.45h6.26v22.17a15.42,15.42,0,0,0,.17,2.26,3.53,3.53,0,0,0,.77,1.81,2.3,2.3,0,0,0,1.83.69,2.34,2.34,0,0,0,1.86-.69,3.36,3.36,0,0,0,.75-1.81,16.93,16.93,0,0,0,.15-2.26V199.45h6.26v21.28a17.27,17.27,0,0,1-.78,5.55,6.44,6.44,0,0,1-2.75,3.5A10.44,10.44,0,0,1,201.11,231Z"/><path class="cls-5" d="M222.62,231a9.8,9.8,0,0,1-4.8-1.06,6.65,6.65,0,0,1-2.9-3.19,14.71,14.71,0,0,1-1.14-5.43l5.46-.92a16.24,16.24,0,0,0,.4,3.2,4,4,0,0,0,1,1.93,2.36,2.36,0,0,0,1.67.63,1.79,1.79,0,0,0,1.68-.77,3.52,3.52,0,0,0,.44-1.77,5.57,5.57,0,0,0-.94-3.28,15.5,15.5,0,0,0-2.48-2.67l-3.23-2.81a13,13,0,0,1-2.82-3.3,8.74,8.74,0,0,1-1.1-4.53,7.58,7.58,0,0,1,2.25-5.9,8.79,8.79,0,0,1,6.17-2.06,8.43,8.43,0,0,1,3.84.77,5.83,5.83,0,0,1,2.32,2.06,8.21,8.21,0,0,1,1.15,2.8,18.56,18.56,0,0,1,.41,3l-5.42.8a22.45,22.45,0,0,0-.25-2.49,3.32,3.32,0,0,0-.69-1.69,1.93,1.93,0,0,0-1.56-.62,1.84,1.84,0,0,0-1.65.83,3.26,3.26,0,0,0-.54,1.82,4.57,4.57,0,0,0,.75,2.71,13.22,13.22,0,0,0,2.06,2.21l3.15,2.77a17.44,17.44,0,0,1,3.36,3.86,9.63,9.63,0,0,1,1.4,5.36,7.87,7.87,0,0,1-1,4,7.09,7.09,0,0,1-2.78,2.76A8.43,8.43,0,0,1,222.62,231Z"/><path class="cls-5" d="M137.44,253.69V236.33h1.63v17.36Z"/><path class="cls-5" d="M144.3,253.69V237.6H141v-1.27h8.08v1.27h-3.17v16.09Z"/><path class="cls-5" d="M151,241.24l-.38-.58a1.31,1.31,0,0,0,.79-.73,4.24,4.24,0,0,0,.19-1.47h-.86v-2.13h1.8v1.8a5.36,5.36,0,0,1-.32,2.09A1.74,1.74,0,0,1,151,241.24Z"/><path class="cls-5" d="M158.44,253.9a4.33,4.33,0,0,1-2.35-.59,3.6,3.6,0,0,1-1.4-1.65,7.29,7.29,0,0,1-.58-2.47l1.43-.43a9.79,9.79,0,0,0,.39,1.94,2.86,2.86,0,0,0,.88,1.37,2.43,2.43,0,0,0,4.09-2,3.5,3.5,0,0,0-.57-2,10.33,10.33,0,0,0-1.55-1.76l-3.06-2.94a5.22,5.22,0,0,1-1.2-1.64,4.35,4.35,0,0,1-.39-1.85,3.53,3.53,0,0,1,1.07-2.76,4.07,4.07,0,0,1,2.85-1,5.37,5.37,0,0,1,1.66.24,3.11,3.11,0,0,1,1.26.76,3.6,3.6,0,0,1,.83,1.36,8.64,8.64,0,0,1,.41,2l-1.4.37a7.41,7.41,0,0,0-.35-1.88,2.32,2.32,0,0,0-.84-1.18,2.57,2.57,0,0,0-1.57-.41,2.67,2.67,0,0,0-1.76.56,2.12,2.12,0,0,0-.68,1.73,3,3,0,0,0,.27,1.29,4.19,4.19,0,0,0,1,1.24l3.06,2.89a11,11,0,0,1,1.78,2.14,4.85,4.85,0,0,1,.75,2.66,4.37,4.37,0,0,1-.5,2.18,3.21,3.21,0,0,1-1.41,1.32A4.7,4.7,0,0,1,158.44,253.9Z"/><path class="cls-5" d="M169,253.69V236.33h6.24v1.23H170.6v6.53h3.84v1.2H170.6v8.4Z"/><path class="cls-5" d="M177.24,253.69V236.33h3.92a5.22,5.22,0,0,1,2.56.53,3,3,0,0,1,1.34,1.52,6.25,6.25,0,0,1,.41,2.37,7.15,7.15,0,0,1-.22,1.82,3.42,3.42,0,0,1-.72,1.45,2.55,2.55,0,0,1-1.46.8l2.66,8.87h-1.59l-2.55-8.53h-2.72v8.53Zm1.63-9.73h2.21a3.29,3.29,0,0,0,1.69-.36,2,2,0,0,0,.86-1.07,5.37,5.37,0,0,0,.25-1.78,4.22,4.22,0,0,0-.55-2.4,2.55,2.55,0,0,0-2.21-.79h-2.25Z"/><path class="cls-5" d="M188.19,253.69V236.33h6.28v1.27h-4.63v6.51h3.77v1.2h-3.77v7.15h4.67v1.23Z"/><path class="cls-5" d="M196.72,253.69V236.33H203v1.27h-4.63v6.51h3.77v1.2h-3.77v7.15H203v1.23Z"/><path class="cls-5" d="M205.05,253.69v-1.87h1.67v1.87Zm.56-3.73-.54-13.63h1.67L206.16,250Z"/><path class="cls-10" d="M154.67,294.1a2.2,2.2,0,0,1-1.33-.34,1.72,1.72,0,0,1-.63-1,5.74,5.74,0,0,1-.17-1.46V286h1.07v5.36a5.33,5.33,0,0,0,.07.93,1.19,1.19,0,0,0,.3.68.9.9,0,0,0,.69.24,1,1,0,0,0,.71-.24,1.25,1.25,0,0,0,.29-.68,5.33,5.33,0,0,0,.07-.93V286h1.06v5.31a5.74,5.74,0,0,1-.17,1.46,1.72,1.72,0,0,1-.63,1A2.18,2.18,0,0,1,154.67,294.1Z"/><path class="cls-10" d="M159.86,294.1a2.16,2.16,0,0,1-1.15-.29,1.93,1.93,0,0,1-.7-.82,3.47,3.47,0,0,1-.27-1.22l1-.27a4.25,4.25,0,0,0,.14.82,1.44,1.44,0,0,0,.34.65,1,1,0,0,0,1.32,0,1,1,0,0,0,.22-.7,1.38,1.38,0,0,0-.25-.87,4.68,4.68,0,0,0-.62-.67l-1.34-1.18a2.31,2.31,0,0,1-.59-.76,2.5,2.5,0,0,1-.18-1,1.77,1.77,0,0,1,.5-1.36,1.87,1.87,0,0,1,1.37-.49,2.66,2.66,0,0,1,.84.12,1.54,1.54,0,0,1,.6.38,2.08,2.08,0,0,1,.39.65,3.82,3.82,0,0,1,.19.92l-1,.25a3.86,3.86,0,0,0-.12-.72,1.12,1.12,0,0,0-.31-.54.94.94,0,0,0-.64-.2.87.87,0,0,0-.64.22.86.86,0,0,0-.24.66,1.33,1.33,0,0,0,.13.6,1.69,1.69,0,0,0,.4.49l1.35,1.18a4.38,4.38,0,0,1,.8.95,2.35,2.35,0,0,1,.35,1.29,2,2,0,0,1-.25,1,1.64,1.64,0,0,1-.68.65A2,2,0,0,1,159.86,294.1Z"/><path class="cls-10" d="M162.65,294v-8h3.1v.83h-2v2.65h1.61v.79h-1.61v2.93h2v.8Z"/><path class="cls-10" d="M166.67,294v-8h1.61a3.58,3.58,0,0,1,1.32.21,1.49,1.49,0,0,1,.78.68,2.61,2.61,0,0,1,.25,1.23,3.2,3.2,0,0,1-.1.85,1.61,1.61,0,0,1-.32.64,1.15,1.15,0,0,1-.57.38l1.14,4H169.7l-1-3.75h-.87V294Zm1.11-4.55h.43a2.07,2.07,0,0,0,.77-.12.75.75,0,0,0,.43-.41,1.74,1.74,0,0,0,.14-.8,1.61,1.61,0,0,0-.25-1,1.29,1.29,0,0,0-1-.31h-.5Z"/><path class="cls-10" d="M171.8,294v-8h.76l2.27,5.32V286h.93v8h-.71l-2.31-5.46V294Z"/><path class="cls-10" d="M176.58,294l1.7-8h1.07l1.71,8H180l-.37-2H178l-.39,2Zm1.58-2.81h1.33l-.67-3.61Z"/><path class="cls-10" d="M181.85,294l.15-8h1.1l1.41,6.49,1.42-6.49H187l.15,8h-.9l-.09-5.81L184.83,294h-.64l-1.34-5.81-.09,5.81Z"/><path class="cls-10" d="M188.39,294v-8h3.1v.83h-2v2.65h1.61v.79h-1.61v2.93h2v.8Z"/><path class="cls-10" d="M151.83,327.12v-8h2a2.15,2.15,0,0,1,1.15.26,1.5,1.5,0,0,1,.63.75,3.27,3.27,0,0,1,.2,1.2,2.51,2.51,0,0,1-.23,1.1,1.5,1.5,0,0,1-.65.71,2.14,2.14,0,0,1-1.09.26H153v3.72ZM153,322.6h.51a2.14,2.14,0,0,0,.76-.11.71.71,0,0,0,.4-.38,2,2,0,0,0,.12-.77,3.34,3.34,0,0,0-.09-.88.6.6,0,0,0-.35-.42,2.1,2.1,0,0,0-.83-.12H153Z"/><path class="cls-10" d="M155.77,327.12l1.7-8h1.07l1.71,8h-1.06l-.36-2H157.2l-.39,2Zm1.58-2.82h1.33l-.67-3.6Z"/><path class="cls-10" d="M163,327.21a2,2,0,0,1-1.15-.3,1.87,1.87,0,0,1-.7-.82,3.42,3.42,0,0,1-.28-1.21l1-.27a4.39,4.39,0,0,0,.14.82,1.4,1.4,0,0,0,.34.65.85.85,0,0,0,.66.25.86.86,0,0,0,.66-.24,1,1,0,0,0,.22-.7,1.38,1.38,0,0,0-.25-.87,4.21,4.21,0,0,0-.62-.67l-1.35-1.19a2.37,2.37,0,0,1-.58-.75,2.49,2.49,0,0,1-.19-1,1.81,1.81,0,0,1,.51-1.37,1.89,1.89,0,0,1,1.37-.48,2.66,2.66,0,0,1,.84.12,1.44,1.44,0,0,1,.6.38,1.8,1.8,0,0,1,.38.65,3.71,3.71,0,0,1,.2.91l-1,.26a4,4,0,0,0-.12-.73,1.09,1.09,0,0,0-.31-.53.94.94,0,0,0-.64-.2.79.79,0,0,0-.88.88,1.21,1.21,0,0,0,.13.6,1.55,1.55,0,0,0,.4.48l1.35,1.19a4.32,4.32,0,0,1,.8.94,2.4,2.4,0,0,1,.34,1.3,2,2,0,0,1-.24,1,1.66,1.66,0,0,1-.68.66A2.13,2.13,0,0,1,163,327.21Z"/><path class="cls-10" d="M167.62,327.21a2.07,2.07,0,0,1-1.15-.3,1.87,1.87,0,0,1-.7-.82,3.42,3.42,0,0,1-.27-1.21l1-.27a3.69,3.69,0,0,0,.13.82,1.5,1.5,0,0,0,.34.65,1,1,0,0,0,1.32,0,1,1,0,0,0,.22-.7,1.38,1.38,0,0,0-.25-.87,4.21,4.21,0,0,0-.62-.67l-1.34-1.19a2.27,2.27,0,0,1-.59-.75,2.5,2.5,0,0,1-.18-1,1.81,1.81,0,0,1,.5-1.37,1.91,1.91,0,0,1,1.37-.48,2.66,2.66,0,0,1,.84.12,1.44,1.44,0,0,1,.6.38,2,2,0,0,1,.39.65,3.74,3.74,0,0,1,.19.91l-.95.26a4,4,0,0,0-.12-.73,1.09,1.09,0,0,0-.31-.53.94.94,0,0,0-.64-.2.87.87,0,0,0-.64.22.86.86,0,0,0-.24.66,1.33,1.33,0,0,0,.13.6,1.55,1.55,0,0,0,.4.48l1.35,1.19a4.32,4.32,0,0,1,.8.94,2.41,2.41,0,0,1,.35,1.3,1.93,1.93,0,0,1-.25,1,1.6,1.6,0,0,1-.68.66A2.07,2.07,0,0,1,167.62,327.21Z"/><path class="cls-10" d="M171.44,327.12l-1.3-8h.93l.86,5.75,1.08-5.72h.79l1.08,5.75.84-5.78h.91l-1.28,8h-.81l-1.12-5.93-1.13,5.93Z"/><path class="cls-10" d="M179.58,327.21a2.36,2.36,0,0,1-1.3-.32,1.75,1.75,0,0,1-.69-.9,4.09,4.09,0,0,1-.21-1.38v-3a3.93,3.93,0,0,1,.21-1.36,1.74,1.74,0,0,1,.7-.87,2.41,2.41,0,0,1,1.29-.3,2.38,2.38,0,0,1,1.28.3,1.81,1.81,0,0,1,.69.87,3.93,3.93,0,0,1,.21,1.36v3a4,4,0,0,1-.21,1.36,1.87,1.87,0,0,1-.69.91A2.29,2.29,0,0,1,179.58,327.21Zm0-.88a1.07,1.07,0,0,0,.67-.18.9.9,0,0,0,.3-.52,3,3,0,0,0,.08-.77v-3.51a2.94,2.94,0,0,0-.08-.77.86.86,0,0,0-.3-.49,1.14,1.14,0,0,0-.67-.17,1.15,1.15,0,0,0-.68.17.82.82,0,0,0-.31.49,2.94,2.94,0,0,0-.08.77v3.51a3,3,0,0,0,.08.77.86.86,0,0,0,.31.52A1.08,1.08,0,0,0,179.58,326.33Z"/><path class="cls-10" d="M182.86,327.12v-8h1.61a3.58,3.58,0,0,1,1.32.21,1.49,1.49,0,0,1,.78.68,2.68,2.68,0,0,1,.25,1.23,3.74,3.74,0,0,1-.1.85,1.68,1.68,0,0,1-.32.64,1.22,1.22,0,0,1-.57.38l1.14,4h-1.08l-1-3.75H184v3.75Zm1.11-4.55h.43a2.11,2.11,0,0,0,.77-.12.79.79,0,0,0,.43-.41,1.91,1.91,0,0,0,.14-.8,1.59,1.59,0,0,0-.26-1,1.27,1.27,0,0,0-1-.31H184Z"/><path class="cls-10" d="M188,327.12v-8h1.74a3.1,3.1,0,0,1,1.41.27,1.54,1.54,0,0,1,.74.81,3.62,3.62,0,0,1,.22,1.36v2.94a3.94,3.94,0,0,1-.22,1.43,1.73,1.73,0,0,1-.72.89,2.58,2.58,0,0,1-1.34.3Zm1.12-.8h.63a1.26,1.26,0,0,0,.87-.24,1.06,1.06,0,0,0,.31-.69,8.55,8.55,0,0,0,.06-1.1V321.7a5.42,5.42,0,0,0-.08-1,.83.83,0,0,0-.35-.56,1.54,1.54,0,0,0-.84-.18h-.6Z"/><path class="cls-1" d="M151.51,374.69a3.89,3.89,0,0,1-1.87-.41,2.63,2.63,0,0,1-1.13-1.24,5.76,5.76,0,0,1-.44-2.11l2.12-.36a6.59,6.59,0,0,0,.16,1.25,1.48,1.48,0,0,0,.39.74.88.88,0,0,0,.65.25.69.69,0,0,0,.65-.3,1.4,1.4,0,0,0,.17-.68,2.11,2.11,0,0,0-.37-1.28,5.68,5.68,0,0,0-1-1l-1.25-1.09a5.09,5.09,0,0,1-1.1-1.28,3.46,3.46,0,0,1-.43-1.77,2.94,2.94,0,0,1,.88-2.29,3.42,3.42,0,0,1,2.39-.8,3.28,3.28,0,0,1,1.5.3,2.27,2.27,0,0,1,.9.8,3.59,3.59,0,0,1,.45,1.09,8.15,8.15,0,0,1,.15,1.17l-2.1.32a8.08,8.08,0,0,0-.1-1,1.25,1.25,0,0,0-.27-.66.73.73,0,0,0-.6-.24.72.72,0,0,0-.64.32,1.28,1.28,0,0,0-.21.71,1.72,1.72,0,0,0,.29,1.05,4.77,4.77,0,0,0,.8.86l1.22,1.08a7.2,7.2,0,0,1,1.31,1.5,3.76,3.76,0,0,1,.54,2.08,3.17,3.17,0,0,1-.38,1.54,2.67,2.67,0,0,1-1.09,1.07A3.25,3.25,0,0,1,151.51,374.69Z"/><path class="cls-1" d="M155.75,374.53v-12.1h2.45v12.1Z"/><path class="cls-1" d="M163.14,374.71a3.28,3.28,0,0,1-1.94-.52,2.74,2.74,0,0,1-1-1.46,7,7,0,0,1-.31-2.2v-4a7.09,7.09,0,0,1,.31-2.24,2.69,2.69,0,0,1,1.1-1.45,3.86,3.86,0,0,1,2.13-.51,4.11,4.11,0,0,1,2.05.44,2.47,2.47,0,0,1,1.08,1.22,4.9,4.9,0,0,1,.33,1.88v.7h-2.4v-.85a5.26,5.26,0,0,0-.06-.84.84.84,0,0,0-1-.78.91.91,0,0,0-.72.25,1.25,1.25,0,0,0-.28.65,5.53,5.53,0,0,0-.06.84v5.36a4.12,4.12,0,0,0,.09.91,1.19,1.19,0,0,0,.33.63,1,1,0,0,0,.71.22,1,1,0,0,0,.72-.23,1.24,1.24,0,0,0,.35-.65,4.44,4.44,0,0,0,.1-.94v-1.28H163.5v-1.49h3.4v6.21h-1.61l-.15-1.09a2.22,2.22,0,0,1-.72.91A2.07,2.07,0,0,1,163.14,374.71Z"/><path class="cls-1" d="M168.59,374.53v-12.1h1.72l2.68,6.3v-6.3h2v12.1h-1.64l-2.69-6.69v6.69Z"/><path class="cls-1" d="M184,374.69a4.12,4.12,0,0,1-2.14-.47,2.48,2.48,0,0,1-1.07-1.36,6.76,6.76,0,0,1-.3-2.15v-8.28h2.43v8.62a5.14,5.14,0,0,0,.07.88,1.28,1.28,0,0,0,.3.7,1.08,1.08,0,0,0,1.43,0,1.28,1.28,0,0,0,.29-.7,6.4,6.4,0,0,0,.06-.88v-8.62h2.44v8.28a6.74,6.74,0,0,1-.31,2.15,2.44,2.44,0,0,1-1.07,1.36A4.1,4.1,0,0,1,184,374.69Z"/><path class="cls-1" d="M189.22,374.53v-12.1h3.84a3.47,3.47,0,0,1,1.78.41,2.54,2.54,0,0,1,1,1.19,4.82,4.82,0,0,1,.34,1.88,3.84,3.84,0,0,1-.45,2,2.38,2.38,0,0,1-1.2,1,4.7,4.7,0,0,1-1.74.31h-1.12v5.24Zm2.47-7h.86a1.58,1.58,0,0,0,.83-.17.87.87,0,0,0,.4-.54,3.67,3.67,0,0,0,.1-1,4.69,4.69,0,0,0-.08-.92,1,1,0,0,0-.37-.59,1.58,1.58,0,0,0-.89-.2h-.85Z"/></g><g id="Character"><path class="cls-11" d="M318.31,264.79S315,282.73,314.52,288s-1,26.91,2.78,41.57a137.92,137.92,0,0,0,9.35,25.52s2.53,10.36,4.05,13.14,14.15,24.25,14.15,24.25-.76,8.85-1.27,10.36-2.27,10.87-1.77,13.65,1.27,4.55.51,8.08-1.77,7.08,0,10.11,6.06,3.29,7.33,1.52a13.83,13.83,0,0,0,2.78-10.36c-.76-5.06-3.29-11.63-2.78-14.4a29,29,0,0,1,2.27-6.32s9.6,19.71,10.11,21.22,1.51,7.84,2,9.86,3.28-.76,4.29-2,4.8-6.57,4.05-10.11-3-9.86-3-9.86l3.78,5a.55.55,0,0,0,1-.48c-.7-2.44-1.66-5.65-2-6.26-.5-1-.75-4.3-2.78-7.08s-7.58-.25-7.58-.25l-4.29-13.65s7.83-25.77,6.32-34.36-2.28-14.91-1.77-16.68,10.1-28.42,10.1-34,.26-19-2.78-26.28a126.82,126.82,0,0,0-7.07-14.15Z"/><path class="cls-12" d="M360.86,402.25l-3.38-10.75s7.83-25.77,6.32-34.36-2.28-14.91-1.77-16.68,9.22-28.49,10.1-34a47.31,47.31,0,0,0-2.78-26.28,126.82,126.82,0,0,0-7.07-14.15l-44-1.26S315,282.73,314.52,288s-1,26.91,2.78,41.57a137.92,137.92,0,0,0,9.35,25.52s2.53,10.36,4.05,13.14,14.15,24.25,14.15,24.25-.44,5.08-.87,8.2a13.29,13.29,0,0,0,5.92,2.42l2,2S357.66,407.68,360.86,402.25Z"/><path class="cls-13" d="M354.34,380.92c-1.22-4.67-2.74-10.43-3.68-13.67-1.77-6.07-7.33-21.48-7.33-21.48l-4.55-46.11-8.59-5.56"/><path class="cls-13" d="M356.22,388.22l-1-3.7"/><path class="cls-13" d="M347.61,288.74c-2.44,3.83-5.16,8.51-6.3,11.93"/><path class="cls-13" d="M352.17,282s-1,1.42-2.46,3.55"/><path class="cls-12" d="M372.13,412.48c-.5-1-.75-4.3-2.78-7.08a3.31,3.31,0,0,0-2.52-1.27c1.73,4.34.13,7.83,1,11.13,1,3.79,1.77,7.07.25,9.85s-5.31,4.29-5.31,4.29l-.07,0c.48,2.43,1,5.51,1.34,6.81.5,2,3.28-.76,4.29-2s4.8-6.57,4.05-10.11-3-9.86-3-9.86l4.39,5.78a.36.36,0,0,0,.64-.31C373.68,417.25,372.48,413.17,372.13,412.48Z"/><path class="cls-12" d="M352.49,426.42c-.37,1.2-.85,2.68-1.33,4-1,2.78-4.29,3-6.57.5a10.59,10.59,0,0,1-2.27-6.32c-.76,3.54-1.77,7.08,0,10.11s6.06,3.29,7.33,1.52A13.91,13.91,0,0,0,352.49,426.42Z"/><path class="cls-9" d="M314.54,202.64s-3.84,1.35-3.67,1.85-6.13,32-6.13,32-4.47,11.59-4,15.73,4,9.12,7.95,9.12a7,7,0,0,0,6.3-3.65c.83-1.16,3.64-6.62,3.64-6.62s-1,10.43-1.32,11.43-2,3.64-1.16,4.47a13.9,13.9,0,0,0,4.31,2.48,107.19,107.19,0,0,0,25.34,2.16c11.27-.67,18.06-3.65,18.06-3.65a34.5,34.5,0,0,1,1.32-3.64c.33-.5,1-1.33,1-1.33s10.6-1.16,11.26-1.82,2.49-3.48,2.32-7.95,1.49-43.24.66-44.07a34.85,34.85,0,0,0-4.71-2.8L356.55,195.6l-28.62,3.75Z"/><path class="cls-4" d="M314.74,210.89s3.47,6.36,4.34,10.41"/><path class="cls-3" d="M307.32,238.93s4.53.58,6.27,3"/><path class="cls-3" d="M312.24,238.64s2.21,1.16,2.7,2.22"/><path class="cls-3" d="M302.92,244.91s1.82-3.65,4.63-4.15,6.8,2.16,6.8,2.16l2.32-.83,3,6.13-1,2.82"/><path class="cls-3" d="M372.86,212.92s-2.49,5.64-3.28,7.47"/><line class="cls-3" x1="366.2" y1="262.96" x2="356.56" y2="253.86"/><line class="cls-3" x1="362.42" y1="261.62" x2="352.76" y2="256.62"/><line class="cls-3" x1="325.17" y1="269.9" x2="350.69" y2="267.14"/><path class="cls-3" d="M346.38,209.54s-2.93,28.8-3.1,30.35"/><line class="cls-3" x1="341.72" y1="251.1" x2="340.86" y2="260.58"/><polygon class="cls-11" points="358.34 190.82 355.8 197.24 347.43 206.81 339.95 196.94 340.57 184.49 349.97 193.06 358.34 190.82"/><path class="cls-12" d="M350.73,151.36S336,156.69,334,160.88A64.86,64.86,0,0,0,330,173.19c0,.51-7,3.3-8.38,5.46s.13,8.51,0,10.28-6.6,3.81-7.23,7.75a12.7,12.7,0,0,0,.12,6l11.3-1.77s7.37,2.92,11.3,1.39,4.32-9.14,4.06-11.68-.63-6.09-.63-6.09l5.2-14.73,11.81-3.55,7.49,7-6.88,18.08s-2.17,4.38-1.79,5.53,3.85,2.29,3.85,2.29l15.48,7.23a8.38,8.38,0,0,0,.39-3.68c-.26-2-3.56-6.34-3.56-7.61s4.32-6.22,2.29-10.67-4.19-6.85-5.34-9.14,1-6.6-1.27-12.19-9.77-10.41-11.8-11.55S350.73,151.36,350.73,151.36Z"/><path class="cls-11" d="M356.06,161.64s-11.43,5.08-12.32,7.49-3.3,13.58-3.17,15.36,7.74,10.92,9.27,11.17,9.34-4.28,10.74-5.29,6-16.29,5.89-18.7S357.33,161.77,356.06,161.64Z"/><path class="cls-4" d="M343.63,171.11c7.78-2.08,12.43-9.47,12.43-9.47s5.73,10.24,10.91,11.8"/><path class="cls-4" d="M356.06,161.64s-11.4,9.47-15.29,10.24"/><path class="cls-3" d="M356.31,184.36a4.53,4.53,0,0,1-3.55.89"/><path class="cls-3" d="M348.44,186.14a6,6,0,0,0,7.24,1.4"/><path class="cls-3" d="M352.76,174s-3.18-2.16-6.22-.76"/><path class="cls-3" d="M358.6,174.71s3.55-1.39,5.2.26"/><path class="cls-5" d="M350.47,177.75c-.09.77-.63,1.34-1.23,1.27a1.26,1.26,0,0,1-.92-1.5c.08-.77.63-1.34,1.22-1.27A1.27,1.27,0,0,1,350.47,177.75Z"/><path class="cls-5" d="M360.49,179.27c-.08.77-.63,1.34-1.22,1.28a1.28,1.28,0,0,1-.92-1.51c.08-.77.63-1.34,1.22-1.27A1.26,1.26,0,0,1,360.49,179.27Z"/><polygon class="cls-9" points="335.77 202.48 340.25 210.4 345.93 204.72 339.95 196.94 335.77 202.48"/><polygon class="cls-9" points="349.52 205.02 353.56 210.85 360.25 199.09 356.55 195.6 349.52 205.02"/><polygon class="cls-11" points="330.6 244.52 321.82 244.52 320.72 224.19 331.7 224.19 330.6 244.52"/><rect class="cls-12" x="319.56" y="222.45" width="13.11" height="3.08"/><rect class="cls-12" x="321.39" y="221.01" width="9.64" height="1.45"/><path class="cls-11" d="M320.29,246.34a.5.5,0,0,1,0,.12,4.09,4.09,0,0,1-3.58,2.75,3.13,3.13,0,0,1-2.4-.78,3.73,3.73,0,0,1-1-2.37,4.92,4.92,0,0,1,1.42-4.54c.41-.49,2-1.78,2.11-2.42l.89-7s8.72-2,9.48-1.9a1,1,0,0,1,.76,1.42c-.19.57-1.52.86-1.8,1s-4.55,1.14-4.55,1.14l-1.52,1.8a18.13,18.13,0,0,1,2.28-1c.28,0,5-.66,5.59-.76a1,1,0,0,1,.95,1.42c-.38.76-.67,1-.95,1s-5,.85-5,.85l-2.66,2.28s3.6-1.14,4-1.14,3.7-.09,3.79.47a1.18,1.18,0,0,1-.75,1.43c-.67.18-3.23.56-3.23.56l-2.84,1.52H324s2.65.85,3.22.95.95.38.19,1.23-6.65.17-6.66.17S320.4,245.89,320.29,246.34Z"/><path class="cls-9" d="M366.26,242.27l-1.89,2.47s0,15,.59,16.26,5.19,4.71,7.66,4.71,7.3-5.65,7.54-6.6-6.13-19.2-6-19.67-.59-1.06-1.41-1.06S366.26,242.27,366.26,242.27Z"/><path class="cls-11" d="M372.79,233.33l.3,6.35s-.35,2.59-2,3.65a8.23,8.23,0,0,1-3.89,1.06l-1.06-2.12-1.65-1.65Z"/><polygon class="cls-12" points="374.69 224.72 362.76 222.23 355.29 242.15 365.38 243.99 374.69 224.72"/><path class="cls-11" d="M373.05,229.78s-8,.36-8.08,1,.18,1.42.44,1.51,7.38,1.06,7.38,1.06,1.95-.44,1.86-2A1.51,1.51,0,0,0,373.05,229.78Z"/><path class="cls-11" d="M368.52,232.89s-7-.8-7.37-.36-.71,1.07.36,1.51a78.39,78.39,0,0,0,8,2.22,3.36,3.36,0,0,0,2.49-1.33,1.66,1.66,0,0,0,.17-1.42Z"/><path class="cls-11" d="M364.88,235.2s-5.33-1.07-5.59-.54-.36,1.43.17,1.78,7.64,2.31,8.09,2.49,1.51-.36,1.86-1.07a2.44,2.44,0,0,0,.09-1.6Z"/><path class="cls-11" d="M365.06,238.31s-4-.8-4.17-.36-.27,1.42.53,1.69,5.42,2.13,6.21,1.6.54-2,.54-2Z"/></g><g id="Speech_Bubble" data-name="Speech Bubble"><path class="cls-6" d="M388.91,121.44h36.27a6.15,6.15,0,0,1,6.15,6.15v24.57a6.15,6.15,0,0,1-6.15,6.15H403.89L394.15,172V158.31h-5.24a6.14,6.14,0,0,1-6.14-6.15V127.59A6.14,6.14,0,0,1,388.91,121.44Z"/><path class="cls-1" d="M404.58,153.2a4.49,4.49,0,0,1-3.51-1.92l-6.59-9.46a4.5,4.5,0,0,1,3.68-7.07,4.5,4.5,0,0,1,3.7,1.93l3.19,4.58,13-15.83a4.48,4.48,0,0,1,3.48-1.65,4.5,4.5,0,0,1,3.47,7.36l-16.79,20.43a4.47,4.47,0,0,1-3.47,1.64Z"/><path class="cls-5" d="M421.55,124.78a3.51,3.51,0,0,1,2.7,5.73l-16.79,20.42a3.49,3.49,0,0,1-2.7,1.28h-.14a3.46,3.46,0,0,1-2.73-1.49l-6.59-9.46a3.49,3.49,0,0,1,.87-4.87,3.43,3.43,0,0,1,2-.63,3.49,3.49,0,0,1,2.88,1.5l3.95,5.67,13.85-16.86a3.52,3.52,0,0,1,2.71-1.28m0-2a5.51,5.51,0,0,0-4.25,2l-12.18,14.82-2.44-3.5a5.5,5.5,0,1,0-9,6.29l6.59,9.45a5.5,5.5,0,0,0,4.29,2.35h.22a5.48,5.48,0,0,0,4.25-2l16.79-20.42a5.51,5.51,0,0,0-4.25-9Z"/></g></g></svg>