<svg xmlns="http://www.w3.org/2000/svg" width="58" height="58" fill="none" viewBox="0 0 58 58">
  <path fill="#4E65E4" d="M54.375 9.667H3.625v38.666h50.75V9.667ZM26.583 41.083h4.834v4.834h-4.834v-4.834Zm9.667 0h4.833v4.834H36.25v-4.834Zm9.667 0h4.833v4.834h-4.833v-4.834Zm-29 0h4.833v4.834h-4.833v-4.834Zm-9.667 0h4.833v4.834H7.25v-4.834Zm19.333-29h4.834v4.834h-4.834v-4.834Zm9.667 0h4.833v4.834H36.25v-4.834Zm9.667 0h4.833v4.834h-4.833v-4.834Zm-29 0h4.833v4.834h-4.833v-4.834Zm-9.667 0h4.833v4.834H7.25v-4.834Z"/>
  <path fill="#FE57B1" d="M25.375 21.75v14.5l12.083-6.62-12.083-7.88Z"/>
</svg>
